<svg width="19" height="20" viewBox="0 0 19 20" fill="none" xmlns="http://www.w3.org/2000/svg">
<path d="M14.25 15.9375C14.25 16.5674 13.9998 17.1715 13.5544 17.6169C13.109 18.0623 12.5049 18.3125 11.875 18.3125H3.5625C2.93261 18.3125 2.32852 18.0623 1.88312 17.6169C1.43772 17.1715 1.1875 16.5674 1.1875 15.9375V7.625C1.1875 6.99511 1.43772 6.39102 1.88312 5.94562C2.32852 5.50022 2.93261 5.25 3.5625 5.25V6.4375C3.24756 6.4375 2.94551 6.56261 2.72281 6.78531C2.50011 7.00801 2.375 7.31006 2.375 7.625V15.9375C2.375 16.2524 2.50011 16.5545 2.72281 16.7772C2.94551 16.9999 3.24756 17.125 3.5625 17.125H11.875C12.1899 17.125 12.492 16.9999 12.7147 16.7772C12.9374 16.5545 13.0625 16.2524 13.0625 15.9375H14.25Z" fill="#006B91"/>
<path d="M7.125 2.875C6.81006 2.875 6.50801 3.00011 6.28531 3.22281C6.06261 3.44551 5.9375 3.74756 5.9375 4.0625V12.375C5.9375 12.6899 6.06261 12.992 6.28531 13.2147C6.50801 13.4374 6.81006 13.5625 7.125 13.5625H15.4375C15.7524 13.5625 16.0545 13.4374 16.2772 13.2147C16.4999 12.992 16.625 12.6899 16.625 12.375V4.0625C16.625 3.74756 16.4999 3.44551 16.2772 3.22281C16.0545 3.00011 15.7524 2.875 15.4375 2.875H7.125ZM7.125 1.6875H15.4375C16.0674 1.6875 16.6715 1.93772 17.1169 2.38312C17.5623 2.82852 17.8125 3.43261 17.8125 4.0625V12.375C17.8125 13.0049 17.5623 13.609 17.1169 14.0544C16.6715 14.4998 16.0674 14.75 15.4375 14.75H7.125C6.49511 14.75 5.89102 14.4998 5.44562 14.0544C5.00022 13.609 4.75 13.0049 4.75 12.375V4.0625C4.75 3.43261 5.00022 2.82852 5.44562 2.38312C5.89102 1.93772 6.49511 1.6875 7.125 1.6875Z" fill="#006B91"/>
</svg>
