<svg width="10" height="18" viewBox="0 0 10 18" fill="none" xmlns="http://www.w3.org/2000/svg">
<path d="M8.46214 4.61817H8.96214V4.11817V1.79432V1.36169L8.534 1.29951C8.28895 1.26393 7.51473 1.19141 6.62075 1.19141C5.59553 1.19141 4.68605 1.53483 4.03589 2.23391C3.38903 2.92944 3.05005 3.92161 3.05005 5.12541V6.67218H1.53906H1.03906V7.17218V9.77006V10.2701H1.53906H3.05005V16.3068V16.8068H3.55005H6.01561H6.51561V16.3068V10.2707H7.94526H8.38977L8.44182 9.82922L8.74814 7.23133L8.814 6.67278H8.25158H6.51504V5.38339C6.51531 5.02428 6.56756 4.85661 6.63081 4.77476C6.66995 4.72412 6.78239 4.61817 7.19821 4.61817H8.46214Z" stroke="white"/>
</svg>
