<svg width="16" height="16" viewBox="0 0 16 16" fill="none" xmlns="http://www.w3.org/2000/svg">
<path d="M14.0464 1.95621C13.6663 1.57082 13.2062 1.27104 12.701 1.08074C12.2221 0.895749 11.6807 0.769707 10.9072 0.735568C10.1501 0.699636 9.90601 0.691406 8.00183 0.691406C6.09714 0.691406 5.85383 0.699644 5.09974 0.732763C4.32637 0.766854 3.78189 0.892935 3.305 1.07812C2.79509 1.27096 2.33735 1.56783 1.95643 1.95702M14.0464 1.95621L14.0443 1.95417L13.8344 2.16898L14.0484 1.95827L14.0464 1.95621ZM14.0464 1.95621C14.4357 2.33706 14.7326 2.79471 14.9255 3.3044C15.1108 3.78135 15.2368 4.32571 15.2709 5.09888C15.304 5.85373 15.3068 6.09805 15.3068 8.00049C15.3068 9.90483 15.2986 10.1481 15.2654 10.902C15.2313 11.6763 15.1049 12.218 14.9197 12.6973C14.525 13.7179 13.7179 14.525 12.6971 14.9197M12.6971 14.9197L12.5885 14.6397M12.6971 14.9197C12.2199 15.1052 11.6752 15.2313 10.9013 15.2654C10.1471 15.2987 9.9038 15.3068 7.99915 15.3068C6.0945 15.3068 5.85106 15.2987 5.09702 15.2654C4.32321 15.2313 3.78179 15.1053 3.30268 14.9203C2.79734 14.7299 2.33708 14.43 1.95685 14.0444M1.95685 14.0444L1.9585 14.046L2.16925 13.832L1.95522 14.0427L1.95685 14.0444ZM1.95685 14.0444C1.57143 13.6645 1.27155 13.2073 1.07831 12.6966C0.892972 12.2197 0.76687 11.6753 0.732772 10.9021C0.699648 10.1481 0.691406 9.90483 0.691406 8.00049C0.691406 6.09665 0.699637 5.85257 0.735575 5.0956C0.769722 4.32228 0.895795 3.78108 1.08081 3.30215C1.27124 2.79716 1.57093 2.33713 1.95643 1.95702M1.95643 1.95702L1.9544 1.9591L2.16925 2.16898L1.9585 1.95499L1.95643 1.95702Z" stroke="white"/>
<path d="M5.03906 7.99865C5.03906 6.36367 6.36571 5.03711 8.0006 5.03711C9.63559 5.03711 10.9621 6.36366 10.9621 7.99865C10.9621 9.63363 9.63559 10.9602 8.0006 10.9602C6.36571 10.9602 5.03906 9.63362 5.03906 7.99865Z" stroke="white"/>
<path d="M11.1914 3.76893C11.1914 3.19531 11.6564 2.73047 12.2298 2.73047C12.8034 2.73047 13.2683 3.19532 13.2683 3.76893C13.2683 4.34241 12.8034 4.80739 12.2298 4.80739C11.6564 4.80739 11.1914 4.34242 11.1914 3.76893Z" stroke="white"/>
</svg>
