<svg width="88" height="80" viewBox="0 0 88 80" fill="none" xmlns="http://www.w3.org/2000/svg">
<path d="M14.4462 68.7911L17.1522 73.7111H14.8378L12.9942 70.0533L11.1374 73.7111H8.79657L11.5026 68.7911L8.86697 64.1956H11.2078L12.9986 67.6889L14.7762 64.1956H17.0906L14.4462 68.7911Z" fill="#0C1E34"/>
<path d="M27.7929 73.7156H25.6501L24.9109 71.5289H20.7925L20.0533 73.7156H18.0469L21.5053 64.2H24.3301L27.7929 73.7156ZM22.8517 65.4756L21.3601 69.88H24.3477L22.8517 65.4756Z" fill="#0C1E34"/>
<path d="M28.1531 64.2H36.2403V65.8578H33.1867V73.7156H31.2067V65.8578H28.1531V64.2Z" fill="#0C1E34"/>
<path d="M40.3322 72.2044L43.6014 64.2H46.7518V73.7156H44.7718V66.1022L41.7578 73.7156H38.3522V64.2H40.3322V72.2044Z" fill="#0C1E34"/>
<path d="M55.8623 68.1156V64.2H57.8423V73.7156H55.8623V69.76H51.4491V73.7156H49.4691V64.2H51.4491V68.1156H55.8623Z" fill="#0C1E34"/>
<path d="M64.295 68.9289C64.9682 69 65.5226 69.1511 65.9626 69.3778C66.4026 69.6044 66.737 69.8978 66.9658 70.2533C67.1946 70.6133 67.3662 70.9644 67.485 71.3067C67.5994 71.6533 67.7314 72.0622 67.8766 72.5422C68.0218 73.0222 68.1714 73.4133 68.3342 73.7111H66.143C66.0462 73.5378 65.9538 73.2667 65.8658 72.8978C65.7822 72.5244 65.6898 72.1733 65.5974 71.8444C65.505 71.5155 65.373 71.1822 65.2058 70.8533C65.0386 70.5244 64.7834 70.2578 64.4314 70.0578C64.0794 69.8578 63.657 69.76 63.1554 69.76H62.535V73.7155H60.555V64.2H62.535V68.1155H62.7506C63.1466 68.1155 63.4634 68.0355 63.701 67.8711C63.9386 67.7067 64.1058 67.4978 64.207 67.2444C64.3038 66.9911 64.3918 66.7111 64.4622 66.4C64.5326 66.0933 64.6338 65.7955 64.757 65.5111C64.8802 65.2267 65.0562 64.9689 65.2762 64.7422C65.4962 64.5155 65.8394 64.3511 66.3058 64.2444C66.7722 64.1422 67.3442 64.1244 68.0262 64.1955V65.84C67.5862 65.7689 67.2386 65.7778 66.9746 65.8755C66.715 65.9689 66.539 66.1244 66.451 66.3289C66.363 66.5378 66.2706 66.7733 66.1738 67.0444C66.0814 67.3111 65.989 67.5733 65.8966 67.8267C65.8086 68.08 65.6282 68.3111 65.3598 68.52C65.0914 68.7289 64.735 68.8667 64.295 68.9289Z" fill="#0C1E34"/>
<path d="M79.2066 73.7156H77.0682L76.329 71.5289H72.2106L71.4714 73.7156H69.465L72.9234 64.2H75.7482L79.2066 73.7156ZM74.2654 65.4756L72.7738 69.88H75.7614L74.2654 65.4756Z" fill="#0C1E34"/>
<path d="M46.685 27.6311H42.4302C42.0782 27.6311 41.7966 27.9156 41.7966 28.2711V33.6711C41.7966 34.0267 42.0782 34.3111 42.4302 34.3111H46.685C47.0326 34.3111 47.3186 34.0267 47.3186 33.6711V28.2711C47.3186 27.92 47.0326 27.6311 46.685 27.6311ZM43.0594 33.0356V28.9156H44.001V33.0356H43.0594ZM45.1098 33.0356V28.9156H46.0514V33.0356H45.1098Z" fill="#0C1E34"/>
<path d="M64.0458 33.7689V35.1244C64.0414 35.1244 64.037 35.1244 64.0326 35.12C63.1086 34.8133 62.167 34.5733 61.2078 34.3956C61.089 34.3733 60.9702 34.3511 60.847 34.3333C60.7282 34.3111 60.6094 34.2933 60.4862 34.2755C60.3674 34.2578 60.2442 34.24 60.1254 34.2222C60.0066 34.2044 59.8834 34.1911 59.7602 34.1778C59.5182 34.1511 59.2762 34.1244 59.0298 34.1067C58.911 34.0978 58.7878 34.0844 58.6646 34.0756C58.5458 34.0667 58.4314 34.0622 58.3126 34.0533C57.4282 32.6844 56.7462 31.1156 56.293 29.3867C55.9586 28.12 55.743 26.7511 55.6462 25.2978C55.6462 25.2933 55.6462 25.2889 55.6462 25.2844L64.0458 33.7689Z" fill="#006B91"/>
<path d="M64.0486 24.8089V31.1689L55.8206 22.8622C55.7546 22.7956 55.6842 22.7422 55.605 22.7022C55.6666 20.6756 55.9658 18.84 56.4938 17.2C56.4938 17.1956 56.4982 17.1956 56.4982 17.1911L59.5562 20.28L64.0486 24.8089Z" fill="#006B91"/>
<path d="M64.05 9.01778V22.2044L64.0368 22.1911L62.6728 20.8178L61.3792 19.5111L61.3616 19.4933L57.2344 15.3244C58 13.7289 59.0384 12.36 60.3364 11.2267C61.7136 10.0267 63.1084 9.36444 64.0324 9.01778C64.0412 9.01778 64.0456 9.01778 64.05 9.01778Z" fill="#006B91"/>
<path d="M31.3977 15.3333L24.5953 22.2044V9.01333C25.5545 9.36888 26.9977 10.0622 28.4277 11.3422C29.6641 12.4489 30.6541 13.7822 31.3977 15.3333Z" fill="#006B91"/>
<path d="M33.0286 22.64L30.0806 25.6178L28.677 27.0356L24.585 31.1689V24.8089L30.3358 19L30.7318 18.6L32.1266 17.1911C32.4566 18.2178 32.703 19.32 32.8526 20.4933C32.8658 20.6 32.879 20.7111 32.8922 20.8267C32.8922 20.8311 32.8922 20.84 32.8966 20.8444C32.901 20.8889 32.9054 20.9333 32.9098 20.9778C32.9186 21.08 32.9318 21.1867 32.9406 21.2978C32.9626 21.5378 32.9802 21.7778 32.9934 22.0089C33.0154 22.2133 33.0242 22.4267 33.0286 22.64Z" fill="#006B91"/>
<path d="M32.9905 25.2844C32.7661 28.72 31.8685 31.6622 30.3197 34.0533C28.3617 34.1556 26.4433 34.5111 24.5953 35.12V33.7644L26.8833 31.4533L28.3265 29.9956L28.3881 29.9333L32.9773 25.2933L32.9905 25.2844Z" fill="#006B91"/>
<path d="M46.4543 22.9067L44.6327 20.8311L42.8023 22.9155L40.3779 25.88V35.8622C40.3779 35.8844 40.3779 35.9022 40.3735 35.9244C41.6671 36.5022 42.9079 37.2089 44.0695 38.0267C44.1531 38.0844 44.2367 38.1467 44.3203 38.2089C44.4039 38.1467 44.4875 38.0844 44.5711 38.0267C45.8867 37.0978 47.2903 36.3244 48.7599 35.7067V25.8667L46.4543 22.9067ZM47.3299 33.6755C47.3299 34.0311 47.0483 34.3155 46.6963 34.3155H42.4283C42.0763 34.3155 41.7947 34.0311 41.7947 33.6755V28.2711C41.7947 27.9155 42.0763 27.6311 42.4283 27.6311H46.6963C47.0483 27.6311 47.3299 27.9155 47.3299 28.2711V33.6755Z" fill="#006B91"/>
<path d="M44.0037 28.9111H43.0753V33.0311H44.0037V28.9111Z" fill="#F5A302"/>
<path d="M46.0508 28.9111H45.1224V33.0311H46.0508V28.9111Z" fill="#F5A302"/>
<path d="M62.2637 46.9689L53.9169 46.8622H52.3153C53.8113 46.0711 55.4701 45.6578 57.1905 45.6578C58.9857 45.6578 60.7237 46.1111 62.2637 46.9689Z" fill="#FFBE55"/>
<path d="M64.048 42.4V45.9067C62.0284 44.5467 59.6568 43.8133 57.1928 43.8133C54.9136 43.8133 52.7268 44.4311 50.804 45.6089C50.782 45.5733 50.7644 45.5333 50.7424 45.4978C50.7116 45.4356 50.6764 45.3778 50.6412 45.32C50.5752 45.2 50.5092 45.0844 50.4388 44.9689C50.408 44.9156 50.3772 44.8622 50.3464 44.8089C50.2496 44.6489 50.1528 44.4844 50.0516 44.3289C50.0472 44.3244 50.0472 44.32 50.0428 44.3156C49.9372 44.1511 49.8316 43.9911 49.726 43.8311C49.6908 43.7778 49.6556 43.7289 49.6204 43.68C49.5456 43.5689 49.4664 43.4578 49.3916 43.3467C49.352 43.2889 49.3124 43.2311 49.2684 43.1778C49.2376 43.1378 49.2068 43.0933 49.1804 43.0533C51.5872 41.5644 54.3416 40.7778 57.1928 40.7778C59.5732 40.7733 61.9316 41.3333 64.048 42.4Z" fill="#F5A302"/>
<path d="M64.0469 37.0711V40.3733C61.8953 39.4311 59.5545 38.9378 57.1917 38.9378C53.9181 38.9378 50.7633 39.8578 48.0221 41.6089C47.9473 41.52 47.8681 41.4311 47.7889 41.3467C47.7493 41.3022 47.7053 41.2533 47.6613 41.2089C47.5513 41.0889 47.4413 40.9689 47.3269 40.8533C47.3049 40.8311 47.2829 40.8044 47.2609 40.7822C47.1245 40.6444 46.9881 40.5067 46.8517 40.3689C46.8121 40.3289 46.7725 40.2933 46.7329 40.2533C46.6317 40.1555 46.5261 40.0533 46.4249 39.96C46.3765 39.9155 46.3325 39.8711 46.2841 39.8311C46.1741 39.7289 46.0641 39.6311 45.9497 39.5289C45.9145 39.4978 45.8793 39.4667 45.8441 39.4355C45.8309 39.4267 45.8221 39.4178 45.8133 39.4089C47.5337 38.2267 49.4081 37.3244 51.3969 36.7244C53.2669 36.16 55.2161 35.8755 57.1873 35.8755C57.3897 35.8755 57.5921 35.88 57.7901 35.8844C59.9461 35.9378 62.0449 36.3422 64.0469 37.0711Z" fill="#FFBE55"/>
<path d="M41.9922 55.9111C41.7898 55.8089 41.5918 55.6933 41.4026 55.5689C41.0374 55.3289 40.6986 55.0533 40.395 54.7422C39.2554 53.5867 38.6306 52.0533 38.6306 50.4222V48.5022C38.6306 48.5022 38.6306 48.5067 38.635 48.5067C38.6394 48.5111 38.6394 48.5111 38.6438 48.5155C38.7098 48.5778 38.7758 48.6444 38.8418 48.7067C38.8638 48.7244 38.8814 48.7467 38.9034 48.7644C38.9562 48.8178 39.0046 48.8667 39.053 48.92C39.0706 48.9378 39.0882 48.96 39.1102 48.9778C39.1762 49.0489 39.2422 49.12 39.3038 49.1911C39.3038 49.1911 39.3038 49.1955 39.3082 49.1955C39.3698 49.2667 39.4314 49.3378 39.493 49.4133C39.5106 49.4355 39.5282 49.4533 39.5458 49.4755C39.5898 49.5333 39.6382 49.5867 39.6822 49.6444C39.6998 49.6667 39.713 49.6844 39.7306 49.7067C39.8494 49.8578 39.9638 50.0133 40.0738 50.1733C40.0914 50.1955 40.1046 50.2178 40.1178 50.24C40.1574 50.2978 40.2014 50.36 40.241 50.4222C40.2542 50.4444 40.2718 50.4667 40.285 50.4889C40.3906 50.6489 40.4918 50.8133 40.5886 50.9822C40.6018 51.0044 40.615 51.0311 40.6282 51.0533C40.6634 51.1155 40.6986 51.1778 40.7338 51.24C40.747 51.2667 40.7602 51.2889 40.7734 51.3155C40.8174 51.4 40.8614 51.4844 40.9054 51.5733C40.9494 51.6622 40.989 51.7511 41.033 51.84C41.0462 51.8711 41.0594 51.8978 41.0726 51.9289C41.099 51.9911 41.1254 52.0489 41.1518 52.1111C41.1694 52.1467 41.1826 52.1822 41.1958 52.2178C41.2178 52.2755 41.2398 52.3289 41.2618 52.3822C41.2794 52.4222 41.2926 52.4578 41.3058 52.4978C41.3278 52.5511 41.3454 52.6044 41.3674 52.6578C41.3806 52.6978 41.3938 52.7378 41.407 52.7778C41.4246 52.8311 41.4422 52.8844 41.4598 52.9378C41.473 52.9778 41.4862 53.0178 41.4994 53.0622C41.517 53.1155 41.5302 53.1689 41.5478 53.2222C41.561 53.2622 41.5742 53.3022 41.583 53.3467C41.6006 53.4 41.6138 53.4533 41.627 53.5067C41.6402 53.5467 41.649 53.5911 41.6578 53.6311L41.6974 53.7955C41.7062 53.8355 41.715 53.8755 41.7282 53.9155C41.7414 53.9733 41.7546 54.0267 41.7634 54.0844C41.7722 54.1244 41.781 54.1644 41.7898 54.2C41.803 54.2622 41.8118 54.32 41.825 54.3822C41.8338 54.4178 41.8382 54.4533 41.8426 54.4889C41.8558 54.5644 41.8646 54.6355 41.8778 54.7067C41.8822 54.7289 41.8866 54.7555 41.891 54.7778C41.9042 54.8755 41.9174 54.9733 41.9262 55.0711C41.9306 55.0978 41.9306 55.1244 41.935 55.1467C41.9438 55.2178 41.9482 55.2933 41.957 55.3644C41.9614 55.4 41.9614 55.44 41.9658 55.4755C41.9702 55.5378 41.9746 55.5955 41.979 55.6578C41.9834 55.6978 41.9834 55.7422 41.9834 55.7822C41.9834 55.8222 41.9922 55.8667 41.9922 55.9111Z" fill="#F5A302"/>
<path d="M36.3204 46.8578H35.458L26.3588 46.9778C26.372 46.9689 26.3896 46.96 26.4028 46.9511C26.4688 46.9156 26.5348 46.88 26.6052 46.8444C26.6272 46.8311 26.6536 46.8178 26.68 46.8044C26.768 46.76 26.856 46.7156 26.9484 46.6711C26.9528 46.6667 26.9572 46.6667 26.9616 46.6622C27.0452 46.6222 27.1332 46.5822 27.2168 46.5467C27.2432 46.5333 27.2696 46.5244 27.296 46.5111C27.3664 46.48 27.4368 46.4489 27.5072 46.4222C27.5292 46.4133 27.5556 46.4044 27.5776 46.3956C27.67 46.36 27.7624 46.3244 27.8548 46.2889C27.868 46.2844 27.8812 46.28 27.8944 46.2756C27.9736 46.2489 28.0572 46.2178 28.1364 46.1911C28.1628 46.1822 28.1936 46.1733 28.22 46.1644C28.2948 46.1422 28.3696 46.1156 28.4444 46.0933C28.4664 46.0844 28.4884 46.08 28.5104 46.0756C28.6028 46.0489 28.6996 46.0222 28.7964 45.9956C28.8184 45.9911 28.836 45.9867 28.858 45.9822C28.9372 45.96 29.012 45.9422 29.0912 45.9244C29.122 45.9156 29.1484 45.9111 29.1792 45.9067C29.2584 45.8889 29.3376 45.8711 29.4168 45.8533C29.4344 45.8489 29.452 45.8444 29.474 45.8444C29.5708 45.8267 29.6676 45.8089 29.7688 45.7911C29.7952 45.7867 29.8172 45.7822 29.8436 45.7778C29.9184 45.7644 29.9976 45.7556 30.0724 45.7467C30.1032 45.7422 30.1296 45.7378 30.1604 45.7333C30.2484 45.72 30.3364 45.7111 30.4244 45.7022C30.4376 45.7022 30.4464 45.6978 30.4596 45.6978C30.5608 45.6889 30.6576 45.68 30.7588 45.6756C30.7852 45.6756 30.816 45.6711 30.8424 45.6711C30.9172 45.6667 30.9964 45.6622 31.0712 45.6622C31.102 45.6622 31.1328 45.6578 31.1592 45.6578C31.2604 45.6533 31.3616 45.6533 31.4628 45.6533C31.5904 45.6533 31.718 45.6578 31.8412 45.6622C31.8808 45.6622 31.916 45.6667 31.9556 45.6667C32.048 45.6711 32.136 45.6756 32.2284 45.6844C32.268 45.6889 32.3076 45.6889 32.3472 45.6933C32.4528 45.7022 32.554 45.7111 32.6596 45.7244C32.6816 45.7289 32.7036 45.7289 32.7256 45.7333C32.8488 45.7467 32.972 45.7644 33.0952 45.7867C33.1304 45.7911 33.1612 45.8 33.1964 45.8044C33.2844 45.8178 33.3768 45.8356 33.4692 45.8533C33.5088 45.8622 33.5484 45.8667 33.588 45.8756C33.6804 45.8933 33.7728 45.9156 33.8652 45.9378C33.896 45.9467 33.9268 45.9511 33.9576 45.96C34.0764 45.9911 34.1952 46.0222 34.314 46.0533C34.3404 46.0622 34.3668 46.0711 34.3932 46.0756C34.4856 46.1022 34.578 46.1333 34.6704 46.16C34.71 46.1733 34.7452 46.1867 34.7848 46.2C34.8684 46.2267 34.9564 46.2578 35.04 46.2889C35.0752 46.3022 35.106 46.3156 35.1412 46.3244C35.2556 46.3689 35.37 46.4133 35.4888 46.4622C35.502 46.4667 35.5152 46.4756 35.5284 46.48C35.6296 46.52 35.7308 46.5644 35.8276 46.6133C35.8628 46.6311 35.898 46.6444 35.9332 46.6622C36.0124 46.6978 36.096 46.7378 36.1752 46.7778C36.2104 46.7956 36.2456 46.8133 36.2808 46.8311C36.2852 46.84 36.3028 46.8489 36.3204 46.8578Z" fill="#F5A302"/>
<path d="M46.8285 56.16C46.4457 56.3067 46.0497 56.4133 45.6405 56.4755C45.0377 56.5733 44.4173 56.5778 43.8189 56.4889C43.8189 56.4311 43.8189 56.3689 43.8189 56.3111C43.8189 54.36 43.3877 52.4889 42.5297 50.7555C41.6453 48.96 40.3253 47.3822 38.7149 46.2C36.5941 44.64 34.0817 43.8178 31.4505 43.8178C31.3141 43.8178 31.1777 43.8222 31.0413 43.8267C31.0105 43.8267 30.9797 43.8267 30.9533 43.8311C30.8213 43.8355 30.6849 43.8444 30.5529 43.8533C30.5309 43.8533 30.5133 43.8578 30.4913 43.8578C30.3681 43.8667 30.2493 43.88 30.1261 43.8933C30.0997 43.8978 30.0733 43.8978 30.0513 43.9022C29.9193 43.9155 29.7873 43.9333 29.6553 43.9555C29.6289 43.96 29.6025 43.9644 29.5761 43.9689C29.4529 43.9867 29.3297 44.0089 29.2065 44.0311C29.1933 44.0355 29.1801 44.0355 29.1669 44.04C29.0349 44.0622 28.9029 44.0933 28.7709 44.12C28.7445 44.1289 28.7137 44.1333 28.6873 44.1378C28.5553 44.1689 28.4233 44.2 28.2957 44.2355C28.2869 44.24 28.2825 44.24 28.2737 44.2444C28.1505 44.2755 28.0229 44.3111 27.9041 44.3511C27.8777 44.36 27.8513 44.3689 27.8249 44.3733C27.6973 44.4133 27.5741 44.4533 27.4465 44.4978C27.4245 44.5067 27.4069 44.5111 27.3849 44.52C27.2705 44.56 27.1561 44.6 27.0417 44.6444C27.0241 44.6533 27.0021 44.6578 26.9845 44.6667C26.8613 44.7155 26.7381 44.7644 26.6149 44.8178C26.5885 44.8267 26.5621 44.84 26.5401 44.8489C26.4213 44.9022 26.2981 44.9555 26.1793 45.0133C26.1749 45.0178 26.1705 45.0178 26.1661 45.0178C26.0429 45.0755 25.9241 45.1378 25.8053 45.2C25.7789 45.2133 25.7525 45.2267 25.7305 45.24C25.6117 45.3022 25.4973 45.3644 25.3785 45.4311C25.3653 45.44 25.3521 45.4444 25.3389 45.4533C25.2289 45.5155 25.1233 45.5778 25.0177 45.6444C24.9957 45.6578 24.9737 45.6711 24.9517 45.6844C24.8373 45.7555 24.7273 45.8267 24.6173 45.9022C24.6085 45.9067 24.5997 45.9111 24.5953 45.9155V42.4C24.6833 42.3555 24.7713 42.3111 24.8637 42.2711C24.9033 42.2533 24.9429 42.2311 24.9825 42.2133C25.1233 42.1467 25.2641 42.0844 25.4049 42.0222C25.4225 42.0133 25.4401 42.0089 25.4621 42C25.5853 41.9467 25.7085 41.8978 25.8317 41.8489C25.8845 41.8267 25.9329 41.8089 25.9857 41.7911C26.0781 41.7555 26.1705 41.72 26.2673 41.6844C26.3245 41.6622 26.3861 41.6444 26.4433 41.6222C26.5313 41.5911 26.6149 41.56 26.7029 41.5333C26.7645 41.5111 26.8261 41.4933 26.8921 41.4755C26.9757 41.4489 27.0593 41.4222 27.1473 41.4C27.2133 41.3822 27.2749 41.3644 27.3409 41.3422C27.4245 41.32 27.5081 41.2978 27.5917 41.2755C27.6577 41.2578 27.7237 41.2444 27.7941 41.2267C27.8777 41.2044 27.9613 41.1867 28.0449 41.1689C28.1109 41.1511 28.1813 41.1378 28.2473 41.1244C28.3309 41.1067 28.4145 41.0889 28.4981 41.0711C28.5641 41.0578 28.6345 41.0444 28.7005 41.0311C28.7841 41.0178 28.8677 41 28.9557 40.9867C29.0217 40.9733 29.0921 40.9644 29.1581 40.9555C29.2417 40.9422 29.3297 40.9289 29.4177 40.92C29.4837 40.9111 29.5497 40.9022 29.6201 40.8933C29.7081 40.8844 29.7961 40.8755 29.8841 40.8622C29.9501 40.8533 30.0161 40.8489 30.0821 40.8444C30.1745 40.8355 30.2669 40.8267 30.3593 40.8222C30.4209 40.8178 30.4825 40.8133 30.5441 40.8089C30.6497 40.8 30.7509 40.7955 30.8521 40.7955C30.9049 40.7911 30.9533 40.7911 31.0061 40.7867C31.1601 40.7822 31.3141 40.7778 31.4681 40.7778C34.6449 40.7778 37.6941 41.7467 40.2857 43.5822C41.5529 44.48 42.6749 45.56 43.6209 46.7911C44.5537 48.0044 45.2973 49.3378 45.8385 50.76C45.9221 50.9822 46.0013 51.2089 46.0761 51.4311C46.0805 51.44 46.0805 51.4444 46.0849 51.4533C46.1157 51.5467 46.1465 51.6444 46.1773 51.7422C46.1861 51.7733 46.1949 51.8 46.2037 51.8311C46.2257 51.8978 46.2433 51.9644 46.2653 52.0356C46.2741 52.0711 46.2873 52.1111 46.2961 52.1467C46.3137 52.2089 46.3269 52.2667 46.3445 52.3289C46.3577 52.3689 46.3665 52.4089 46.3753 52.4489C46.3885 52.5067 46.4061 52.5644 46.4193 52.6222C46.4281 52.6622 46.4369 52.7067 46.4501 52.7467C46.4633 52.8044 46.4765 52.8622 46.4897 52.9155C46.4985 52.96 46.5073 53 46.5161 53.0444C46.5293 53.1022 46.5381 53.1556 46.5513 53.2133C46.5601 53.2578 46.5689 53.3022 46.5777 53.3422C46.5865 53.4 46.5997 53.4533 46.6085 53.5111C46.6173 53.5555 46.6217 53.6 46.6305 53.6444C46.6393 53.6978 46.6481 53.7555 46.6569 53.8089C46.6657 53.8533 46.6701 53.8978 46.6789 53.9422C46.6877 53.9955 46.6965 54.0533 46.7053 54.1067C46.7141 54.1511 46.7185 54.1955 46.7229 54.2444C46.7317 54.3022 46.7361 54.3555 46.7449 54.4089C46.7493 54.4533 46.7537 54.5022 46.7625 54.5467C46.7669 54.6 46.7757 54.6578 46.7801 54.7111C46.7845 54.7555 46.7889 54.8044 46.7933 54.8489C46.7977 54.9022 46.8021 54.96 46.8065 55.0133C46.8109 55.0578 46.8153 55.1067 46.8197 55.1555C46.8241 55.2089 46.8285 55.2667 46.8329 55.32C46.8373 55.3644 46.8373 55.4133 46.8417 55.4622C46.8461 55.5155 46.8461 55.5689 46.8505 55.6267C46.8549 55.6755 46.8549 55.72 46.8549 55.7689C46.8549 55.8222 46.8593 55.8755 46.8593 55.9333C46.8593 55.9822 46.8637 56.0267 46.8637 56.0755C46.8285 56.1022 46.8285 56.1289 46.8285 56.16Z" fill="#FFBE55"/>
<path d="M50.7518 50.1644V50.4222C50.7518 52.0533 50.127 53.5911 48.9874 54.7422C48.8642 54.8667 48.7366 54.9822 48.6046 55.0978C48.6046 55.08 48.6002 55.0622 48.6002 55.04C48.587 54.88 48.5782 54.7244 48.5606 54.5689C48.5606 54.5556 48.5562 54.5422 48.5562 54.5289C48.543 54.3822 48.5254 54.2356 48.5078 54.0889C48.5034 54.0533 48.499 54.0178 48.4946 53.9822C48.4726 53.8267 48.4506 53.6711 48.4286 53.52C48.4242 53.4933 48.4198 53.4667 48.4154 53.4444C48.3934 53.3067 48.367 53.1689 48.3406 53.0311C48.3362 53 48.3274 52.9733 48.323 52.9422C48.2922 52.7911 48.2614 52.6356 48.2262 52.4844C48.2174 52.4533 48.213 52.4222 48.2042 52.3911C48.1734 52.2533 48.1382 52.1111 48.103 51.9733C48.0986 51.9556 48.0942 51.9333 48.0898 51.9156C48.0502 51.7644 48.0106 51.6133 47.9666 51.4622C47.9578 51.4267 47.9446 51.3956 47.9358 51.36C47.8918 51.2089 47.8434 51.0533 47.795 50.9022C47.7906 50.8933 47.7906 50.8889 47.7862 50.88C47.5574 50.1733 47.2802 49.4844 46.9678 48.8178C46.4398 47.7067 45.793 46.6489 45.0362 45.6667C44.8426 45.4133 44.6446 45.1689 44.4378 44.9333C44.4334 44.9244 44.4246 44.92 44.4202 44.9111C44.4158 44.9067 44.4158 44.9067 44.4114 44.9022C43.4962 43.84 42.4534 42.8933 41.305 42.08C38.4098 40.0178 34.9998 38.9333 31.4446 38.9333C31.2818 38.9333 31.1146 38.9378 30.9474 38.9422C30.8946 38.9422 30.8418 38.9467 30.789 38.9467C30.6746 38.9511 30.5646 38.9556 30.4502 38.9644C30.3886 38.9689 30.3314 38.9733 30.2698 38.9778C30.1598 38.9867 30.0542 38.9956 29.9442 39.0044C29.887 39.0089 29.8254 39.0133 29.7682 39.0222C29.6494 39.0356 29.5306 39.0489 29.4118 39.0622C29.3678 39.0667 29.3194 39.0711 29.2754 39.08C29.1126 39.1022 28.9498 39.1244 28.787 39.1511C28.7562 39.1556 28.7254 39.16 28.699 39.1644C28.567 39.1867 28.435 39.2089 28.2986 39.2356C28.2414 39.2444 28.1886 39.2578 28.1314 39.2667C28.0258 39.2889 27.9158 39.3111 27.8102 39.3333C27.7486 39.3467 27.6914 39.36 27.6342 39.3733C27.5286 39.3956 27.423 39.4222 27.3174 39.4489C27.2602 39.4622 27.2074 39.4756 27.1502 39.4889C27.027 39.52 26.9038 39.5556 26.7806 39.5911C26.7454 39.6 26.7102 39.6089 26.675 39.6178C26.5166 39.6622 26.3626 39.7111 26.2042 39.76C26.1646 39.7733 26.1206 39.7867 26.081 39.8C25.9666 39.84 25.8522 39.8756 25.7378 39.9156C25.6806 39.9378 25.6278 39.9556 25.5706 39.9778C25.4694 40.0133 25.3682 40.0533 25.267 40.0933C25.2098 40.1156 25.1526 40.1378 25.0954 40.16C24.9898 40.2 24.8886 40.2444 24.7874 40.2889C24.7346 40.3111 24.6862 40.3289 24.6378 40.3511C24.6202 40.36 24.6026 40.3644 24.585 40.3733V37.0711C26.587 36.3422 28.6858 35.9422 30.8374 35.8756C31.0354 35.8711 31.2378 35.8667 31.4402 35.8667C33.9482 35.8667 36.3902 36.3244 38.709 37.2267C39.4702 37.5244 40.2138 37.8622 40.931 38.2533C41.6482 38.64 42.3478 39.0711 43.0166 39.5422C43.2542 39.7111 43.505 39.8933 43.7558 40.0889C44.3806 40.5733 44.979 41.0933 45.5422 41.6489C46.1054 42.2044 46.6422 42.7911 47.1394 43.4089C48.1206 44.6222 48.9566 45.9467 49.6342 47.3467C49.6914 47.4622 49.7442 47.5778 49.797 47.6978C49.819 47.7422 49.8366 47.7822 49.8586 47.8267C49.8894 47.8978 49.9246 47.9733 49.9598 48.0489C49.9818 48.1022 50.0038 48.1511 50.0258 48.2044C50.0566 48.2711 50.083 48.3378 50.1138 48.4089C50.1358 48.4622 50.1578 48.5156 50.1798 48.5689C50.2062 48.6356 50.2326 48.7022 50.259 48.7689C50.281 48.8222 50.303 48.88 50.3206 48.9333C50.347 49 50.3734 49.0667 50.3954 49.1333C50.4174 49.1867 50.435 49.2444 50.457 49.2978C50.4834 49.3644 50.5054 49.4311 50.5274 49.4978C50.545 49.5556 50.567 49.6089 50.5846 49.6622C50.6066 49.7289 50.6286 49.8 50.655 49.8667C50.6726 49.92 50.6902 49.9778 50.7078 50.0311C50.7254 50.0711 50.7386 50.12 50.7518 50.1644Z" fill="#F5A302"/>
<path d="M29.8419 32.2889L29.6351 32.4133L29.5427 32.4267C29.4811 32.4355 29.4239 32.4444 29.3667 32.4533C29.2347 32.48 29.1071 32.52 28.9795 32.5867C28.9443 32.6 28.9179 32.6178 28.8871 32.6355C28.7859 32.6933 28.7067 32.7333 28.6275 32.7644C28.5263 32.8089 28.4207 32.8311 28.2975 32.8311C28.2491 32.8311 28.1963 32.8267 28.1391 32.8222C27.9015 32.7911 27.7035 32.6889 27.5495 32.5155C27.4175 32.3644 27.3383 32.1822 27.3163 31.9822L27.3119 31.9689V31.9555C27.3119 31.9422 27.3075 31.9289 27.3075 31.9155V31.88V31.8711C27.3075 31.76 27.3207 31.6933 27.3339 31.6355L27.3515 31.5867C27.3603 31.5644 27.3691 31.5422 27.3779 31.52C27.3823 31.5067 27.3867 31.4978 27.3911 31.4844C27.5891 31.0355 28.0555 30.8178 28.5263 30.9555C28.6011 30.9778 28.6803 31.0044 28.7551 31.04L28.7639 31.0444L28.7859 31.0578C28.9883 31.1511 29.1731 31.2889 29.3315 31.4578C29.4723 31.6089 29.5955 31.7822 29.6923 31.9733C29.7099 32.0089 29.7275 32.0444 29.7407 32.08L29.7539 32.1067C29.7583 32.12 29.7627 32.1289 29.7671 32.1422L29.8419 32.2889Z" fill="#0C1E34"/>
<path d="M32.2169 21.3289L31.9793 21.3333H31.8957C31.8385 21.3333 31.7813 21.3333 31.7197 21.3333C31.6933 21.3333 31.6669 21.3333 31.6405 21.3378C31.4821 21.3511 31.3281 21.3867 31.1565 21.4489C31.0509 21.4889 30.9585 21.52 30.8705 21.5422L30.8573 21.5467C30.7869 21.5644 30.7165 21.5733 30.6417 21.5733C30.5801 21.5733 30.5097 21.5689 30.4393 21.5511C30.3997 21.5422 30.3601 21.5333 30.3205 21.52C30.0697 21.4489 29.8717 21.3022 29.7353 21.0933C29.6429 20.9511 29.5901 20.7956 29.5725 20.6356C29.5637 20.5644 29.5637 20.4889 29.5725 20.4044L29.5813 20.3511C29.5857 20.3333 29.5857 20.32 29.5901 20.3022C29.6121 20.2 29.6429 20.1111 29.6473 20.1022L29.6605 20.0756C29.6693 20.0622 29.6737 20.0489 29.6825 20.0356C29.7001 20.0044 29.7133 19.9778 29.7309 19.9511C29.7441 19.9289 29.7617 19.9067 29.7749 19.8844C30.0697 19.4844 30.5801 19.3511 31.0377 19.5644C31.1653 19.6222 31.2841 19.6933 31.3941 19.7778L31.4205 19.8C31.5745 19.9244 31.7109 20.0711 31.8297 20.24C31.9573 20.4267 32.0629 20.6356 32.1377 20.8578C32.1509 20.8933 32.1597 20.9289 32.1685 20.9644L32.1861 21.0311C32.1905 21.0444 32.1905 21.0622 32.1905 21.0711L32.2169 21.3289Z" fill="#0C1E34"/>
<path d="M27.9832 26.9822C27.9832 27.0222 27.9832 27.0667 27.9788 27.1067C27.9612 27.3689 27.8644 27.5955 27.684 27.7733C27.5212 27.9378 27.3232 28.0355 27.0944 28.0711C27.0768 28.0755 27.0636 28.0755 27.046 28.08H27.0064C26.8964 28.0933 26.8744 28.0889 26.738 28.0667L26.7292 28.0622L26.6852 28.0489L26.6764 28.0444C26.6412 28.0355 26.606 28.0267 26.5708 28.0089C26.5488 28 26.5224 27.9911 26.496 27.9778C26.0516 27.7733 25.814 27.2889 25.9284 26.7955C25.9328 26.7689 25.9372 26.7511 25.9416 26.7289C26.0076 26.4711 26.1264 26.2267 26.2936 26.0089C26.3288 25.9644 26.3728 25.9111 26.4212 25.8578C26.496 25.7778 26.5664 25.7111 26.6412 25.6489C26.7424 25.5644 26.848 25.4889 26.9668 25.4178C27.0108 25.3955 27.0548 25.3689 27.0988 25.3467L27.1076 25.3422C27.1296 25.3289 27.1516 25.3244 27.1648 25.32L27.376 25.2622L27.442 25.5689C27.4552 25.6267 27.464 25.6844 27.4816 25.7422C27.5256 25.9289 27.6092 26.1155 27.7192 26.2889C27.7632 26.3644 27.8248 26.4622 27.882 26.5733C27.9392 26.6844 27.9656 26.8044 27.9744 26.9467L27.9788 26.9689L27.9832 26.9822Z" fill="#0C1E34"/>
<path d="M27.2293 18.9289V18.9333V18.9467C27.1985 19.3556 26.9213 19.6844 26.5253 19.7867C26.5077 19.7911 26.4857 19.7956 26.4681 19.8C26.4549 19.8044 26.4417 19.8044 26.4285 19.8089L26.3625 19.8178H26.3229C26.2613 19.8178 26.2129 19.8133 26.1557 19.8044L26.1381 19.8089L26.1029 19.7956C26.0985 19.7956 26.0985 19.7956 26.0941 19.7956C26.0149 19.7778 25.9445 19.7511 25.8741 19.7156C25.7553 19.6578 25.6453 19.5689 25.5573 19.4578C25.5045 19.3911 25.4605 19.32 25.4297 19.2444L25.3989 19.1911L25.4033 19.1733C25.3681 19.0667 25.3549 18.9511 25.3593 18.8267C25.3681 18.6356 25.4121 18.4844 25.4957 18.3556C25.5441 18.28 25.6013 18.2044 25.6673 18.12C25.7905 17.9689 25.8785 17.8133 25.9357 17.6533C25.9577 17.5956 25.9753 17.5422 25.9929 17.4844L26.0809 17.2133L26.2701 17.3111C26.2789 17.3156 26.2921 17.3244 26.3097 17.3333L26.3229 17.3422C26.3581 17.3644 26.3933 17.3911 26.4285 17.4178C26.5957 17.5467 26.7453 17.6978 26.8729 17.8667C27.0709 18.1378 27.1897 18.44 27.2249 18.76C27.2337 18.8178 27.2337 18.8756 27.2293 18.9289Z" fill="#0C1E34"/>
<path d="M26.1645 31.2065L26.0597 31.6381L27.7818 32.0648L27.8866 31.6331L26.1645 31.2065Z" fill="#0C1E34"/>
<path d="M28.3466 19.297L28.1738 19.7201L29.8617 20.4236L30.0346 20.0004L28.3466 19.297Z" fill="#0C1E34"/>
<path d="M29.299 24.0311L29.0834 24.0356H29.0086C28.9558 24.0356 28.903 24.0356 28.8502 24.0356C28.8282 24.0356 28.8062 24.0356 28.7798 24.04C28.639 24.0489 28.4982 24.0844 28.3442 24.1422C28.2518 24.1778 28.1682 24.2044 28.089 24.2267L28.0758 24.2311C28.0142 24.2489 27.9482 24.2578 27.8822 24.2578C27.825 24.2578 27.7634 24.2533 27.7018 24.24C27.6666 24.2311 27.6314 24.2222 27.5962 24.2133C27.3674 24.1467 27.1914 24.0178 27.0726 23.8311C26.989 23.7022 26.945 23.5644 26.9274 23.4222C26.9186 23.36 26.9186 23.2889 26.9274 23.2133L26.9362 23.1689C26.9406 23.1556 26.9406 23.1422 26.945 23.1244C26.9626 23.0311 26.9934 22.9556 26.9978 22.9422L27.0066 22.92C27.011 22.9067 27.0198 22.8978 27.0242 22.8844C27.0374 22.8578 27.0506 22.8311 27.0682 22.8089C27.0814 22.7867 27.0946 22.7689 27.1078 22.7511C27.3718 22.3911 27.8294 22.2711 28.243 22.4622C28.3574 22.5156 28.4674 22.5778 28.5642 22.6533L28.5906 22.6711C28.7314 22.7822 28.8546 22.9156 28.9602 23.0667C29.0746 23.2311 29.167 23.4222 29.2374 23.6222C29.2462 23.6533 29.255 23.6844 29.2638 23.72L29.2814 23.7822C29.2858 23.7956 29.2858 23.8089 29.2858 23.8222L29.299 24.0311Z" fill="#0C1E34"/>
<path d="M25.8239 22.2062L25.6678 22.5883L27.1849 23.2206L27.341 22.8385L25.8239 22.2062Z" fill="#0C1E34"/>
<path d="M27.5828 15.4933L27.4244 15.4978H27.3672C27.3276 15.4978 27.288 15.4978 27.2484 15.4978C27.2308 15.4978 27.2132 15.4978 27.1956 15.5022C27.09 15.5111 26.9844 15.5333 26.87 15.5778C26.7996 15.6044 26.738 15.6267 26.6764 15.64L26.6676 15.6444C26.6192 15.6578 26.5708 15.6622 26.5224 15.6622C26.4784 15.6622 26.4344 15.6578 26.386 15.6489C26.3596 15.6444 26.3332 15.6356 26.3068 15.6311C26.1352 15.5822 26.0032 15.4844 25.9152 15.3422C25.8536 15.2489 25.8184 15.1422 25.8052 15.0356C25.8008 14.9867 25.8008 14.9378 25.8052 14.88L25.8096 14.8444C25.8096 14.8356 25.814 14.8222 25.814 14.8133C25.8272 14.7422 25.8492 14.6844 25.8536 14.68L25.8624 14.6622C25.8668 14.6533 25.8712 14.6444 25.8756 14.6356C25.8844 14.6133 25.8976 14.5956 25.9064 14.5778C25.9152 14.5644 25.9284 14.5467 25.9372 14.5333C26.1352 14.2622 26.4784 14.1733 26.7864 14.32C26.87 14.36 26.9536 14.4089 27.0284 14.4622L27.046 14.4756C27.1516 14.56 27.244 14.6578 27.3232 14.7733C27.4112 14.8978 27.4772 15.04 27.53 15.1911C27.5388 15.2133 27.5432 15.24 27.552 15.2622L27.5652 15.3067C27.5652 15.3156 27.5696 15.3289 27.5696 15.3333L27.5828 15.4933Z" fill="#0C1E34"/>
<path d="M24.9844 14.1267L24.8686 14.4102L26.0034 14.8832L26.1192 14.5997L24.9844 14.1267Z" fill="#0C1E34"/>
<path d="M29.109 13.8356L28.9506 13.84H28.8934C28.8538 13.84 28.8142 13.84 28.7746 13.84C28.757 13.84 28.7394 13.84 28.7218 13.8444C28.6162 13.8533 28.5106 13.8756 28.3962 13.92C28.3258 13.9467 28.2642 13.9689 28.2026 13.9822L28.1938 13.9867C28.1454 14 28.097 14.0044 28.0486 14.0044C28.0046 14.0044 27.9606 14 27.9122 13.9911C27.8858 13.9867 27.8594 13.9778 27.833 13.9733C27.6614 13.9244 27.5294 13.8267 27.4414 13.6844C27.3798 13.5911 27.3446 13.4844 27.3314 13.3778C27.327 13.3289 27.327 13.28 27.3314 13.2222L27.3358 13.1867C27.3358 13.1778 27.3402 13.1644 27.3402 13.1556C27.3534 13.0844 27.3754 13.0267 27.3798 13.0222L27.3886 13.0044C27.393 12.9956 27.3974 12.9867 27.4018 12.9778C27.4106 12.9556 27.4238 12.9378 27.4326 12.92C27.4414 12.9067 27.4546 12.8889 27.4634 12.8756C27.6614 12.6044 28.0046 12.5156 28.3126 12.6622C28.3962 12.7022 28.4798 12.7511 28.5546 12.8044L28.5722 12.8178C28.6778 12.9022 28.7702 13 28.8494 13.1156C28.9374 13.24 29.0034 13.3822 29.0562 13.5333C29.065 13.5556 29.0694 13.5822 29.0782 13.6044L29.0914 13.6489C29.0914 13.6578 29.0958 13.6711 29.0958 13.6756L29.109 13.8356Z" fill="#0C1E34"/>
<path d="M26.5055 12.4697L26.3897 12.7532L27.5245 13.2261L27.6403 12.9426L26.5055 12.4697Z" fill="#0C1E34"/>
<path d="M26.4646 19.6089H26.0906V20.9644H26.4646V19.6089Z" fill="#0C1E34"/>
<path d="M26.2161 11.4356V11.4489C26.1941 11.7289 26.0049 11.9556 25.7321 12.0267C25.7189 12.0311 25.7057 12.0311 25.6925 12.0356C25.6837 12.0356 25.6749 12.04 25.6661 12.04L25.6221 12.0444H25.5957C25.5561 12.0444 25.5209 12.0444 25.4813 12.0356L25.4681 12.04L25.4417 12.0311H25.4373C25.3845 12.0178 25.3317 12 25.2877 11.9778C25.2041 11.9378 25.1293 11.8756 25.0677 11.8C25.0325 11.7556 25.0017 11.7067 24.9797 11.6533L24.9577 11.6178L24.9621 11.6044C24.9401 11.5289 24.9269 11.4489 24.9313 11.3644C24.9357 11.2311 24.9665 11.1289 25.0237 11.04C25.0589 10.9867 25.0941 10.9378 25.1425 10.8756C25.2261 10.7689 25.2877 10.6667 25.3273 10.5511C25.3405 10.5111 25.3537 10.4756 25.3669 10.4356L25.4285 10.2489L25.5605 10.3156C25.5693 10.32 25.5781 10.3244 25.5869 10.3289L25.5957 10.3333C25.6221 10.3511 25.6441 10.3644 25.6705 10.3867C25.7849 10.4756 25.8905 10.5778 25.9785 10.6978C26.1149 10.8844 26.1985 11.0933 26.2205 11.3156C26.2161 11.36 26.2161 11.4 26.2161 11.4356Z" fill="#0C1E34"/>
<path d="M25.6902 11.9067H25.4306V12.84H25.6902V11.9067Z" fill="#0C1E34"/>
<path d="M29.8899 16.3289V16.3333V16.3467C29.8591 16.7555 29.5819 17.0844 29.1859 17.1867C29.1683 17.1911 29.1463 17.1955 29.1287 17.2C29.1155 17.2044 29.1023 17.2044 29.0891 17.2089L29.0231 17.2178H28.9835C28.9219 17.2178 28.8735 17.2133 28.8163 17.2044L28.7987 17.2089L28.7635 17.1955C28.7591 17.1955 28.7591 17.1955 28.7547 17.1955C28.6755 17.1778 28.6051 17.1511 28.5347 17.1156C28.4159 17.0578 28.3059 16.9689 28.2179 16.8578C28.1651 16.7911 28.1211 16.72 28.0903 16.6444L28.0595 16.5911L28.0639 16.5733C28.0287 16.4667 28.0155 16.3511 28.0199 16.2267C28.0287 16.0356 28.0727 15.8844 28.1563 15.7555C28.2047 15.68 28.2619 15.6044 28.3279 15.52C28.4511 15.3689 28.5391 15.2133 28.5963 15.0533C28.6183 14.9956 28.6359 14.9422 28.6535 14.8844L28.7415 14.6133L28.9307 14.7111C28.9395 14.7155 28.9527 14.7244 28.9703 14.7333L28.9835 14.7422C29.0187 14.7644 29.0539 14.7911 29.0891 14.8178C29.2563 14.9467 29.4059 15.0978 29.5335 15.2667C29.7315 15.5378 29.8503 15.84 29.8855 16.16C29.8899 16.2178 29.8899 16.2711 29.8899 16.3289Z" fill="#0C1E34"/>
<path d="M29.1252 17.0089H28.7512V18.3644H29.1252V17.0089Z" fill="#0C1E34"/>
<path d="M27.0624 29.4311L26.6444 29.4178L26.6884 28.0444L26.6972 27.7511C26.684 27.6978 26.6752 27.64 26.6664 27.5867C26.5828 27.0489 26.6928 26.4844 26.816 26.0667C26.9216 25.7022 27.036 25.4533 27.0492 25.4311L27.4232 25.6133C27.4188 25.6178 27.3132 25.8578 27.212 26.1956C27.0932 26.6 26.992 27.1556 27.102 27.6444C27.1064 27.6578 27.1064 27.6711 27.1108 27.6844L27.1196 27.7111V27.7422L27.1108 28.0711L27.0624 29.4311Z" fill="#0C1E34"/>
<path d="M31.9997 29.4711L31.7577 29.5244C31.7137 29.5333 31.6653 29.5422 31.6213 29.5556C31.4761 29.5911 31.3265 29.6578 31.1901 29.7467C31.1329 29.7867 31.0537 29.8311 30.9657 29.8756C30.8777 29.92 30.7809 29.9422 30.6709 29.9511L30.6533 29.9556H30.6401C30.6049 29.9556 30.5741 29.9556 30.5433 29.9511C30.3365 29.9378 30.1561 29.8578 30.0153 29.7156C29.8877 29.5822 29.8085 29.4267 29.7821 29.2444C29.7777 29.2311 29.7777 29.2178 29.7777 29.2044V29.1733C29.7689 29.0844 29.7689 29.0667 29.7909 28.96L29.7953 28.9511L29.8041 28.9156V28.9111C29.8129 28.8844 29.8173 28.8578 29.8305 28.8267C29.8393 28.8089 29.8481 28.7867 29.8569 28.7644C30.0153 28.4089 30.4025 28.2178 30.7897 28.3067C30.8117 28.3111 30.8249 28.3156 30.8425 28.32C31.0449 28.3733 31.2385 28.4711 31.4101 28.6044C31.4453 28.6311 31.4849 28.6667 31.5289 28.7067C31.5905 28.7644 31.6477 28.8222 31.6961 28.8844C31.7621 28.9644 31.8237 29.0533 31.8765 29.1467C31.8941 29.1822 31.9161 29.2178 31.9337 29.2533L31.9381 29.2578C31.9469 29.2756 31.9513 29.2933 31.9557 29.3022L31.9997 29.4711Z" fill="#0C1E34"/>
<path d="M28.71 29.2089L28.7188 28.8756L29.8012 28.9111L30.03 28.92C30.074 28.9111 30.118 28.9022 30.162 28.8933C30.5888 28.8267 31.0332 28.9155 31.3632 29.0133C31.6492 29.0978 31.8472 29.1911 31.8648 29.2L31.724 29.5022C31.7196 29.4978 31.5348 29.4133 31.262 29.3333C30.9408 29.24 30.5052 29.1556 30.118 29.2444C30.1092 29.2444 30.096 29.2489 30.0872 29.2533L30.0652 29.2578H30.0432L29.7836 29.2489L28.71 29.2089Z" fill="#0C1E34"/>
<path d="M58.8328 32.2267L59.0396 32.3511L59.132 32.3644C59.1936 32.3733 59.2508 32.3822 59.308 32.3911C59.44 32.4178 59.5676 32.4578 59.6952 32.5244C59.7304 32.5378 59.7568 32.5555 59.7876 32.5733C59.8888 32.6311 59.968 32.6711 60.0472 32.7022C60.1484 32.7467 60.254 32.7689 60.3772 32.7689C60.4256 32.7689 60.4784 32.7644 60.5356 32.76C60.7732 32.7289 60.9712 32.6267 61.1252 32.4533C61.2572 32.3022 61.3364 32.12 61.3584 31.92L61.3628 31.9067V31.8933C61.3628 31.88 61.3672 31.8667 61.3672 31.8533V31.8178V31.8089C61.3672 31.6978 61.354 31.6311 61.3408 31.5733L61.3232 31.5244C61.3144 31.5022 61.3056 31.48 61.2968 31.4578C61.2924 31.4444 61.288 31.4355 61.2836 31.4222C61.0856 30.9733 60.6192 30.7555 60.1484 30.8933C60.0736 30.9155 59.9944 30.9422 59.9196 30.9778L59.9108 30.9822L59.8888 30.9955C59.6864 31.0889 59.5016 31.2267 59.3432 31.3955C59.2024 31.5467 59.0792 31.72 58.9824 31.9111C58.9648 31.9467 58.9472 31.9822 58.934 32.0178L58.9208 32.0444C58.9164 32.0578 58.912 32.0667 58.9076 32.08L58.8328 32.2267Z" fill="#0C1E34"/>
<path d="M56.4609 21.2711L56.6985 21.2755H56.7821C56.8393 21.2755 56.8965 21.2755 56.9581 21.2755C56.9845 21.2755 57.0109 21.2755 57.0373 21.28C57.1957 21.2933 57.3497 21.3289 57.5213 21.3911C57.6269 21.4311 57.7193 21.4622 57.8073 21.4844L57.8205 21.4889C57.8909 21.5067 57.9613 21.5155 58.0361 21.5155C58.0977 21.5155 58.1681 21.5111 58.2385 21.4933C58.2781 21.4844 58.3177 21.4755 58.3573 21.4622C58.6081 21.3911 58.8061 21.2444 58.9425 21.0355C59.0349 20.8933 59.0877 20.7378 59.1053 20.5778C59.1141 20.5067 59.1141 20.4311 59.1053 20.3467L59.0965 20.2933C59.0921 20.2755 59.0921 20.2622 59.0877 20.2444C59.0657 20.1422 59.0349 20.0533 59.0305 20.0444L59.0173 20.0178C59.0085 20.0044 59.0041 19.9911 58.9953 19.9778C58.9777 19.9467 58.9645 19.92 58.9469 19.8933C58.9337 19.8711 58.9161 19.8489 58.9029 19.8267C58.6081 19.4267 58.0977 19.2933 57.6401 19.5067C57.5125 19.5644 57.3937 19.6355 57.2837 19.72L57.2573 19.7422C57.1033 19.8667 56.9669 20.0133 56.8481 20.1822C56.7205 20.3689 56.6149 20.5778 56.5401 20.8C56.5269 20.8355 56.5181 20.8711 56.5093 20.9067L56.4917 20.9733C56.4873 20.9867 56.4873 21.0044 56.4873 21.0133L56.4609 21.2711Z" fill="#0C1E34"/>
<path d="M60.6891 26.92C60.6891 26.96 60.6891 27.0044 60.6935 27.0444C60.7111 27.3067 60.8079 27.5333 60.9883 27.7111C61.1511 27.8755 61.3491 27.9733 61.5779 28.0089C61.5955 28.0133 61.6087 28.0133 61.6263 28.0178H61.6659C61.7759 28.0311 61.7979 28.0267 61.9343 28.0044L61.9431 28L61.9871 27.9867L61.9959 27.9822C62.0311 27.9733 62.0663 27.9644 62.1015 27.9467C62.1235 27.9378 62.1499 27.9289 62.1763 27.9155C62.6207 27.7111 62.8583 27.2267 62.7439 26.7333C62.7395 26.7067 62.7351 26.6889 62.7307 26.6667C62.6647 26.4089 62.5459 26.1644 62.3787 25.9467C62.3435 25.9022 62.2995 25.8489 62.2511 25.7955C62.1763 25.7155 62.1059 25.6489 62.0311 25.5867C61.9299 25.5022 61.8243 25.4267 61.7055 25.3555C61.6615 25.3333 61.6175 25.3067 61.5735 25.2844L61.5647 25.28C61.5427 25.2667 61.5207 25.2622 61.5075 25.2578L61.2963 25.2L61.2303 25.5067C61.2171 25.5644 61.2039 25.6222 61.1907 25.68C61.1467 25.8667 61.0631 26.0533 60.9531 26.2267C60.9091 26.3022 60.8475 26.4 60.7903 26.5111C60.7331 26.6222 60.7067 26.7422 60.6979 26.8844L60.6935 26.9067L60.6891 26.92Z" fill="#0C1E34"/>
<path d="M61.4499 18.8667V18.8711V18.8844C61.4807 19.2933 61.7579 19.6222 62.1539 19.7244C62.1715 19.7289 62.1935 19.7333 62.2111 19.7378C62.2243 19.7422 62.2375 19.7422 62.2507 19.7467L62.3167 19.7556H62.3563C62.4179 19.7556 62.4663 19.7511 62.5235 19.7422L62.5411 19.7467L62.5763 19.7333C62.5807 19.7333 62.5807 19.7333 62.5851 19.7333C62.6643 19.7156 62.7347 19.6889 62.8051 19.6533C62.9239 19.5956 63.0339 19.5067 63.1219 19.3956C63.1747 19.3289 63.2187 19.2578 63.2495 19.1822L63.2803 19.1289L63.2759 19.1111C63.3111 19.0044 63.3243 18.8889 63.3199 18.7644C63.3111 18.5733 63.2671 18.4222 63.1835 18.2933C63.1351 18.2178 63.0779 18.1422 63.0119 18.0578C62.8887 17.9067 62.8007 17.7511 62.7435 17.5911C62.7215 17.5333 62.7039 17.48 62.6863 17.4222L62.5983 17.1511L62.4091 17.2489C62.4003 17.2533 62.3871 17.2622 62.3695 17.2711L62.3563 17.28C62.3211 17.3022 62.2859 17.3289 62.2507 17.3556C62.0835 17.4844 61.9339 17.6356 61.8063 17.8044C61.6083 18.0756 61.4895 18.3778 61.4543 18.6978C61.4455 18.7556 61.4455 18.8133 61.4499 18.8667Z" fill="#0C1E34"/>
<path d="M62.504 31.1438L60.7819 31.5704L60.8867 32.002L62.6088 31.5754L62.504 31.1438Z" fill="#0C1E34"/>
<path d="M60.33 19.2327L58.642 19.9362L58.8149 20.3594L60.5028 19.6559L60.33 19.2327Z" fill="#0C1E34"/>
<path d="M59.3742 23.9689L59.5898 23.9733H59.6646C59.7174 23.9733 59.7702 23.9733 59.823 23.9733C59.845 23.9733 59.867 23.9733 59.8934 23.9778C60.0342 23.9867 60.175 24.0222 60.329 24.08C60.4214 24.1155 60.505 24.1422 60.5842 24.1644L60.5974 24.1689C60.659 24.1867 60.725 24.1956 60.791 24.1956C60.8482 24.1956 60.9098 24.1911 60.9714 24.1778C61.0066 24.1689 61.0418 24.16 61.077 24.1511C61.3058 24.0844 61.4818 23.9555 61.6006 23.7689C61.6842 23.64 61.7282 23.5022 61.7458 23.36C61.7546 23.2978 61.7546 23.2267 61.7458 23.1511L61.737 23.1067C61.7326 23.0933 61.7326 23.08 61.7282 23.0622C61.7106 22.9689 61.6798 22.8933 61.6754 22.88L61.6666 22.8578C61.6622 22.8444 61.6534 22.8355 61.649 22.8222C61.6358 22.7955 61.6226 22.7689 61.605 22.7467C61.5918 22.7244 61.5786 22.7067 61.5654 22.6889C61.3014 22.3289 60.8438 22.2089 60.4302 22.4C60.3158 22.4533 60.2058 22.5155 60.109 22.5911L60.0826 22.6089C59.9418 22.72 59.8186 22.8533 59.713 23.0044C59.5986 23.1689 59.5062 23.36 59.4358 23.56C59.427 23.5911 59.4182 23.6222 59.4094 23.6578L59.3918 23.72C59.3874 23.7333 59.3874 23.7467 59.3874 23.76L59.3742 23.9689Z" fill="#0C1E34"/>
<path d="M62.8559 22.1412L61.3387 22.7735L61.4948 23.1556L63.0119 22.5233L62.8559 22.1412Z" fill="#0C1E34"/>
<path d="M61.0912 15.4311L61.2496 15.4355H61.3068C61.3464 15.4355 61.386 15.4355 61.4256 15.4355C61.4432 15.4355 61.4608 15.4355 61.4784 15.44C61.584 15.4489 61.6896 15.4711 61.804 15.5155C61.8744 15.5422 61.936 15.5644 61.9976 15.5778L62.0064 15.5822C62.0548 15.5955 62.1032 15.6 62.1516 15.6C62.1956 15.6 62.2396 15.5955 62.288 15.5867C62.3144 15.5822 62.3408 15.5733 62.3672 15.5689C62.5388 15.52 62.6708 15.4222 62.7588 15.28C62.8204 15.1867 62.8556 15.08 62.8688 14.9733C62.8732 14.9244 62.8732 14.8755 62.8688 14.8178L62.8644 14.7822C62.8644 14.7733 62.86 14.76 62.86 14.7511C62.8468 14.68 62.8248 14.6222 62.8204 14.6178L62.8116 14.6C62.8072 14.5911 62.8028 14.5822 62.7984 14.5733C62.7896 14.5511 62.7764 14.5333 62.7676 14.5155C62.7588 14.5022 62.7456 14.4844 62.7368 14.4711C62.5388 14.2 62.1956 14.1111 61.8876 14.2578C61.804 14.2978 61.7204 14.3467 61.6456 14.4L61.628 14.4133C61.5224 14.4978 61.43 14.5955 61.3508 14.7111C61.2628 14.8355 61.1968 14.9778 61.144 15.1289C61.1352 15.1511 61.1308 15.1778 61.122 15.2L61.1088 15.2444C61.1088 15.2533 61.1044 15.2667 61.1044 15.2711L61.0912 15.4311Z" fill="#0C1E34"/>
<path d="M63.6956 14.0614L62.5608 14.5344L62.6766 14.8179L63.8114 14.3449L63.6956 14.0614Z" fill="#0C1E34"/>
<path d="M59.5753 13.7733L59.7337 13.7778H59.7909C59.8305 13.7778 59.8701 13.7778 59.9097 13.7778C59.9273 13.7778 59.9449 13.7778 59.9625 13.7822C60.0681 13.7911 60.1737 13.8133 60.2881 13.8578C60.3585 13.8844 60.4201 13.9067 60.4817 13.92L60.4905 13.9244C60.5389 13.9378 60.5873 13.9422 60.6357 13.9422C60.6797 13.9422 60.7237 13.9378 60.7721 13.9289C60.7985 13.9244 60.8249 13.9155 60.8513 13.9111C61.0229 13.8622 61.1549 13.7644 61.2429 13.6222C61.3045 13.5289 61.3397 13.4222 61.3529 13.3155C61.3573 13.2667 61.3573 13.2178 61.3529 13.16L61.3485 13.1244C61.3485 13.1155 61.3441 13.1022 61.3441 13.0933C61.3309 13.0222 61.3089 12.9644 61.3045 12.96L61.2957 12.9422C61.2913 12.9333 61.2869 12.9244 61.2825 12.9155C61.2737 12.8933 61.2605 12.8755 61.2517 12.8578C61.2429 12.8444 61.2297 12.8267 61.2209 12.8133C61.0229 12.5422 60.6797 12.4533 60.3717 12.6C60.2881 12.64 60.2045 12.6889 60.1297 12.7422L60.1121 12.7555C60.0065 12.84 59.9141 12.9378 59.8349 13.0533C59.7469 13.1778 59.6809 13.32 59.6281 13.4711C59.6193 13.4933 59.6149 13.52 59.6061 13.5422L59.5929 13.5867C59.5929 13.5955 59.5885 13.6089 59.5885 13.6133L59.5753 13.7733Z" fill="#0C1E34"/>
<path d="M62.1745 12.4042L61.0397 12.8772L61.1555 13.1606L62.2903 12.6877L62.1745 12.4042Z" fill="#0C1E34"/>
<path d="M62.5893 19.5467H62.2153V20.9022H62.5893V19.5467Z" fill="#0C1E34"/>
<path d="M62.462 11.3733V11.3867C62.484 11.6667 62.6732 11.8933 62.946 11.9644C62.9592 11.9689 62.9724 11.9689 62.9856 11.9733C62.9944 11.9733 63.0032 11.9778 63.012 11.9778L63.056 11.9822H63.0824C63.122 11.9822 63.1572 11.9822 63.1968 11.9733L63.21 11.9778L63.2364 11.9689H63.2408C63.2936 11.9555 63.3464 11.9378 63.3904 11.9156C63.474 11.8756 63.5488 11.8133 63.6104 11.7378C63.6456 11.6933 63.6764 11.6444 63.6984 11.5911L63.7204 11.5555L63.716 11.5422C63.738 11.4667 63.7512 11.3867 63.7468 11.3022C63.7424 11.1689 63.7116 11.0667 63.6544 10.9778C63.6192 10.9244 63.584 10.8755 63.5356 10.8133C63.452 10.7067 63.3904 10.6044 63.3508 10.4889C63.3376 10.4489 63.3244 10.4133 63.3112 10.3733L63.2496 10.1867L63.1176 10.2533C63.1088 10.2578 63.1 10.2622 63.0912 10.2667L63.0824 10.2711C63.056 10.2889 63.034 10.3022 63.0076 10.3244C62.8932 10.4133 62.7876 10.5155 62.6996 10.6355C62.5632 10.8222 62.4796 11.0311 62.4576 11.2533C62.462 11.2978 62.462 11.3378 62.462 11.3733Z" fill="#0C1E34"/>
<path d="M63.2484 11.8444H62.9888V12.7778H63.2484V11.8444Z" fill="#0C1E34"/>
<path d="M58.7882 16.2667V16.2711V16.2844C58.819 16.6933 59.0962 17.0222 59.4922 17.1244C59.5098 17.1289 59.5318 17.1333 59.5494 17.1378C59.5626 17.1422 59.5758 17.1422 59.589 17.1467L59.655 17.1555H59.6946C59.7562 17.1555 59.8046 17.1511 59.8618 17.1422L59.8794 17.1467L59.9146 17.1333C59.919 17.1333 59.919 17.1333 59.9234 17.1333C60.0026 17.1155 60.073 17.0889 60.1434 17.0533C60.2622 16.9955 60.3722 16.9067 60.4602 16.7955C60.513 16.7289 60.557 16.6578 60.5878 16.5822L60.6186 16.5289L60.6142 16.5111C60.6494 16.4044 60.6626 16.2889 60.6582 16.1644C60.6494 15.9733 60.6054 15.8222 60.5218 15.6933C60.4734 15.6178 60.4162 15.5422 60.3502 15.4578C60.227 15.3067 60.139 15.1511 60.0818 14.9911C60.0598 14.9333 60.0422 14.88 60.0246 14.8222L59.9366 14.5511L59.7474 14.6489C59.7386 14.6533 59.7254 14.6622 59.7078 14.6711L59.6946 14.68C59.6594 14.7022 59.6242 14.7289 59.589 14.7555C59.4218 14.8844 59.2722 15.0355 59.1446 15.2044C58.9466 15.4755 58.8278 15.7778 58.7926 16.0978C58.7882 16.1555 58.7838 16.2089 58.7882 16.2667Z" fill="#0C1E34"/>
<path d="M59.9287 16.9467H59.5547V18.3022H59.9287V16.9467Z" fill="#0C1E34"/>
<path d="M61.617 29.3733L62.035 29.36L61.991 27.9867L61.9822 27.6933C61.9954 27.64 62.0042 27.5822 62.013 27.5289C62.0966 26.9911 61.9866 26.4267 61.8634 26.0089C61.7578 25.6444 61.6434 25.3956 61.6302 25.3733L61.2562 25.5556C61.2606 25.56 61.3662 25.8 61.4674 26.1378C61.5862 26.5422 61.6874 27.0978 61.5774 27.5867C61.573 27.6 61.573 27.6133 61.5686 27.6267L61.5598 27.6533V27.6844L61.5686 28.0133L61.617 29.3733Z" fill="#0C1E34"/>
<path d="M56.6775 29.4089L56.9195 29.4622C56.9635 29.4711 57.0119 29.48 57.0559 29.4933C57.2011 29.5289 57.3507 29.5955 57.4871 29.6844C57.5443 29.7244 57.6235 29.7689 57.7115 29.8133C57.7995 29.8578 57.8963 29.88 58.0063 29.8889L58.0239 29.8933H58.0371C58.0723 29.8933 58.1031 29.8933 58.1339 29.8889C58.3407 29.8755 58.5211 29.7955 58.6619 29.6533C58.7895 29.52 58.8687 29.3644 58.8951 29.1822C58.8995 29.1689 58.8995 29.1555 58.8995 29.1422V29.1111C58.9083 29.0222 58.9083 29.0044 58.8863 28.8978L58.8819 28.8889L58.8731 28.8533V28.8489C58.8643 28.8222 58.8599 28.7955 58.8467 28.7644C58.8379 28.7467 58.8291 28.7244 58.8203 28.7022C58.6619 28.3467 58.2747 28.1555 57.8875 28.2444C57.8655 28.2489 57.8523 28.2533 57.8347 28.2578C57.6323 28.3111 57.4387 28.4089 57.2671 28.5422C57.2319 28.5689 57.1923 28.6044 57.1483 28.6444C57.0867 28.7022 57.0295 28.76 56.9811 28.8222C56.9151 28.9022 56.8535 28.9911 56.8007 29.0844C56.7831 29.12 56.7611 29.1555 56.7435 29.1911L56.7391 29.1955C56.7303 29.2133 56.7259 29.2311 56.7215 29.24L56.6775 29.4089Z" fill="#0C1E34"/>
<path d="M59.9664 29.1467L59.9576 28.8133L58.8752 28.8489L58.6464 28.8578C58.6024 28.8489 58.5584 28.84 58.5144 28.8311C58.0876 28.7644 57.6432 28.8533 57.3132 28.9511C57.0272 29.0355 56.8292 29.1289 56.8116 29.1378L56.9524 29.44C56.9568 29.4355 57.1416 29.3511 57.4144 29.2711C57.7356 29.1778 58.1712 29.0933 58.5584 29.1822C58.5672 29.1822 58.5804 29.1867 58.5892 29.1911L58.6112 29.1955H58.6332L58.8928 29.1867L59.9664 29.1467Z" fill="#0C1E34"/>
<path d="M65.538 7.07555C65.3312 6.90222 65.0584 6.82666 64.79 6.87555C64.6756 6.89777 61.952 7.42666 59.2284 9.76444C57.6356 11.1333 56.3684 12.84 55.4576 14.84C54.3356 17.3067 53.768 20.2222 53.768 23.5022C53.768 25.7867 54.0276 27.9244 54.538 29.8578C54.934 31.3644 55.4884 32.7689 56.1924 34.0444C54.3884 34.1244 52.6064 34.4267 50.8816 34.9467C50.7804 34.9778 50.6836 35.0089 50.5868 35.04V25.5467C50.5868 25.3422 50.5208 25.1378 50.3888 24.9778L47.8676 21.7422C47.8544 21.7289 47.8456 21.7111 47.8324 21.6978L45.3112 18.8311C45.1396 18.6311 44.8888 18.52 44.6292 18.52C44.3696 18.52 44.1188 18.6311 43.9472 18.8311L41.426 21.6978C41.4172 21.7067 41.4128 21.7156 41.404 21.7244L38.7596 24.96C38.6232 25.1244 38.5484 25.3333 38.5484 25.5467V35.2089C36.5816 34.5333 34.5356 34.1422 32.45 34.0489C34.056 31.1289 34.87 27.5911 34.87 23.5067C34.87 23.3644 34.87 23.2178 34.8656 23.0756C34.87 23.0178 34.87 22.9556 34.8612 22.8978C34.8524 22.56 34.8436 22.2267 34.8216 21.8933C34.8084 21.64 34.7864 21.3822 34.7644 21.1244C34.7556 21.0089 34.7424 20.8933 34.7292 20.7778C34.7248 20.7244 34.716 20.6711 34.7116 20.6178C34.6984 20.4889 34.6852 20.3644 34.6676 20.2489C34.1088 15.92 32.4192 12.4578 29.634 9.96444C27.4164 7.97777 25.1416 7.21333 24.2616 6.97777C24.2308 6.96889 24.2 6.96 24.1736 6.95555C24.0944 6.93333 24.0284 6.92 23.98 6.90666C23.9536 6.89777 23.9316 6.89333 23.914 6.89333L23.8964 6.88889C23.892 6.88889 23.892 6.88889 23.8876 6.88444C23.8348 6.87555 23.8128 6.87111 23.8128 6.87111C23.5576 6.84 23.2848 6.92 23.0868 7.09777C22.8932 7.27111 22.77 7.52 22.77 7.78666V47.9333C22.77 48.1778 22.8668 48.4133 23.0428 48.5867C23.2188 48.76 23.452 48.8533 23.694 48.8489L35.4728 48.6978H36.7972V50.4222C36.7972 52.5422 37.6112 54.5378 39.094 56.0444C39.49 56.4444 39.93 56.8044 40.4008 57.1155C41.0872 57.5644 41.8396 57.9022 42.6272 58.1155C43.296 58.2978 43.9868 58.3911 44.682 58.3911C45.0956 58.3911 45.5092 58.3555 45.914 58.2933C46.6796 58.1733 47.4232 57.9378 48.1228 57.5955C48.9192 57.2044 49.6452 56.6844 50.2744 56.0444C51.7572 54.5422 52.5712 52.5467 52.5712 50.4222V48.6978H53.8956L64.812 48.84C64.856 48.8489 64.9044 48.8533 64.9484 48.8533C65.45 48.8533 65.8592 48.4444 65.8592 47.9333V7.78666C65.868 7.51111 65.7492 7.25333 65.538 7.07555ZM64.0464 9.01777V13.2756L61.2876 10.4889C62.3348 9.74666 63.3248 9.29333 64.0332 9.02222C64.0376 9.01777 64.042 9.01777 64.0464 9.01777ZM40.3744 35.8622V25.88L42.7988 22.9156L44.6292 20.8311L46.4508 22.9067L48.7608 25.8667V35.7111C47.2912 36.3289 45.8876 37.1022 44.572 38.0311C44.4884 38.0889 44.4048 38.1511 44.3212 38.2133C44.2376 38.1511 44.154 38.0889 44.0704 38.0311C42.9088 37.2089 41.668 36.5067 40.3744 35.9289C40.3744 35.9022 40.3744 35.8844 40.3744 35.8622ZM30.3204 34.0578C28.3624 34.16 26.444 34.5155 24.596 35.1244V33.7689L26.884 31.4578L28.3272 30L28.3888 29.9378L32.978 25.2978L32.9912 25.2844C32.7668 28.72 31.8692 31.6622 30.3204 34.0578ZM32.8636 20.4933C32.8768 20.6 32.89 20.7111 32.9032 20.8267C32.9032 20.8311 32.9032 20.84 32.9076 20.8444C32.912 20.8889 32.9164 20.9333 32.9208 20.9778C32.9296 21.08 32.9428 21.1867 32.9516 21.2978C32.9736 21.5378 32.9912 21.7778 33.0044 22.0089C33.0176 22.2178 33.0264 22.4311 33.0308 22.6444L30.0828 25.6222L28.6792 27.04L24.5872 31.1733V24.8089L30.338 19L30.734 18.6L32.1288 17.1911C32.4676 18.2133 32.7096 19.3156 32.8636 20.4933ZM31.3984 15.3333L24.596 22.2044V15.5378L28.5912 11.5022C29.7484 12.5733 30.69 13.8533 31.3984 15.3333ZM27.4252 10.5378L24.596 13.3956V9.01333C25.3308 9.28889 26.3472 9.75555 27.4252 10.5378ZM35.4596 46.8578L26.3604 46.9778C26.3736 46.9689 26.3912 46.96 26.4044 46.9555C26.4704 46.92 26.5364 46.88 26.6068 46.8489C26.6288 46.8355 26.6552 46.8222 26.6816 46.8089C26.7696 46.7644 26.8576 46.72 26.95 46.6755C26.9544 46.6711 26.9588 46.6711 26.9632 46.6711C27.0468 46.6311 27.1348 46.5911 27.2184 46.5555C27.2448 46.5422 27.2712 46.5333 27.2976 46.52C27.368 46.4889 27.4384 46.4578 27.5088 46.4311C27.5308 46.4222 27.5572 46.4133 27.5792 46.4044C27.6716 46.3689 27.764 46.3333 27.8564 46.2978C27.8696 46.2933 27.8828 46.2889 27.896 46.2844C27.9752 46.2533 28.0544 46.2267 28.138 46.2C28.1644 46.1911 28.1952 46.1822 28.2216 46.1733C28.2964 46.1467 28.3712 46.1244 28.446 46.1022C28.468 46.0933 28.49 46.0889 28.512 46.0844C28.6044 46.0533 28.7012 46.0311 28.798 46.0044C28.82 46 28.8376 45.9955 28.8596 45.9911C28.9388 45.9689 29.0136 45.9511 29.0928 45.9333C29.1236 45.9244 29.15 45.92 29.1808 45.9155C29.26 45.8978 29.3392 45.88 29.4184 45.8622C29.436 45.8578 29.4536 45.8533 29.4756 45.8533C29.5724 45.8355 29.6692 45.8178 29.7704 45.8C29.7924 45.7955 29.8188 45.7911 29.8408 45.7867C29.92 45.7733 29.9948 45.7644 30.0696 45.7555C30.1004 45.7511 30.1268 45.7467 30.1576 45.7422C30.2456 45.7289 30.3336 45.72 30.4216 45.7111C30.4348 45.7111 30.4436 45.7067 30.4568 45.7067C30.558 45.6978 30.6548 45.6889 30.756 45.6844C30.7868 45.6844 30.8132 45.68 30.8396 45.68C30.9144 45.6755 30.9936 45.6711 31.0684 45.6711C31.0992 45.6711 31.1256 45.6667 31.1564 45.6667C31.2576 45.6622 31.3588 45.6622 31.46 45.6622C31.5876 45.6622 31.7108 45.6667 31.8384 45.6711C31.878 45.6711 31.9132 45.6755 31.9528 45.6755C32.0452 45.68 32.1332 45.6844 32.2256 45.6933C32.2652 45.6978 32.3048 45.6978 32.3444 45.7022C32.45 45.7111 32.5512 45.72 32.6568 45.7333C32.6788 45.7378 32.7008 45.7378 32.7228 45.7422C32.846 45.7555 32.9692 45.7733 33.0924 45.7955C33.1276 45.8 33.1584 45.8089 33.1936 45.8133C33.2816 45.8267 33.374 45.8444 33.4664 45.8622C33.506 45.8711 33.5456 45.8755 33.5852 45.8889C33.6776 45.9067 33.77 45.9289 33.8624 45.9511C33.8932 45.96 33.924 45.9644 33.9548 45.9733C34.0736 46.0044 34.1924 46.0355 34.3112 46.0667C34.3376 46.0755 34.364 46.0844 34.3904 46.0889C34.4828 46.1155 34.5752 46.1467 34.6676 46.1733C34.7072 46.1867 34.7468 46.2 34.782 46.2133C34.8656 46.2444 34.9536 46.2711 35.0372 46.3022C35.0724 46.3155 35.1032 46.3289 35.1384 46.3422C35.2528 46.3867 35.3672 46.4311 35.4816 46.48C35.4948 46.4844 35.508 46.4933 35.5212 46.4978C35.6224 46.5422 35.7236 46.5867 35.8204 46.6311C35.8556 46.6444 35.8908 46.6622 35.926 46.68C36.0052 46.7155 36.0888 46.7555 36.168 46.7955C36.2032 46.8133 36.2384 46.8311 36.2736 46.8489C36.2912 46.8578 36.3088 46.8667 36.3264 46.88H35.4596V46.8578ZM41.3952 55.5689C41.03 55.3289 40.6912 55.0533 40.3876 54.7422C39.248 53.5867 38.6188 52.0533 38.6188 50.4222V48.5022C38.6188 48.5022 38.6188 48.5022 38.6232 48.5022C38.6276 48.5067 38.6276 48.5067 38.632 48.5111C38.698 48.5733 38.764 48.64 38.83 48.7022C38.852 48.72 38.8696 48.7422 38.8916 48.76C38.9444 48.8133 38.9928 48.8622 39.0412 48.9155C39.0588 48.9333 39.0764 48.9555 39.0984 48.9733C39.1644 49.0444 39.2304 49.1155 39.2964 49.1867C39.2964 49.1867 39.2964 49.1911 39.3008 49.1911C39.3624 49.2622 39.4284 49.3333 39.4856 49.4089C39.5032 49.4267 39.5208 49.4489 39.5384 49.4711C39.5824 49.5289 39.6308 49.5822 39.6748 49.64C39.6924 49.6622 39.71 49.68 39.7232 49.7022C39.842 49.8533 39.9564 50.0089 40.0664 50.1689C40.084 50.1911 40.0972 50.2133 40.1104 50.2355C40.15 50.2933 40.194 50.3555 40.2336 50.4178C40.2468 50.44 40.2644 50.4622 40.2776 50.4844C40.3832 50.6444 40.4844 50.8133 40.5768 50.9778C40.59 51.0044 40.6032 51.0267 40.6164 51.0533C40.6516 51.1155 40.6868 51.1778 40.722 51.24C40.7352 51.2667 40.7484 51.2889 40.7616 51.3155C40.8056 51.4 40.8496 51.4889 40.8936 51.5733C40.9376 51.6622 40.9772 51.7511 41.0212 51.84C41.0344 51.8711 41.0476 51.8978 41.0608 51.9289C41.0872 51.9867 41.1136 52.0489 41.14 52.1111C41.1532 52.1467 41.1708 52.1822 41.184 52.2178C41.206 52.2711 41.228 52.3289 41.25 52.3822C41.2676 52.4222 41.2808 52.4622 41.294 52.4978C41.316 52.5511 41.3336 52.6044 41.3556 52.6578C41.3688 52.6978 41.3864 52.7378 41.3952 52.7778C41.4128 52.8311 41.4304 52.8844 41.448 52.9378C41.4612 52.9778 41.4744 53.0178 41.4876 53.0622C41.5052 53.1155 41.5228 53.1689 41.536 53.2222C41.5492 53.2622 41.5624 53.3022 41.5712 53.3467C41.5844 53.4 41.602 53.4533 41.6152 53.5067C41.624 53.5467 41.6372 53.5911 41.646 53.6311L41.6856 53.7955C41.6944 53.8355 41.7032 53.8755 41.7164 53.92C41.7296 53.9778 41.7428 54.0311 41.7516 54.0889C41.7604 54.1289 41.7692 54.1689 41.7736 54.2044C41.7868 54.2667 41.7956 54.3244 41.8088 54.3867C41.8176 54.4222 41.822 54.4578 41.8264 54.4933C41.8396 54.5689 41.8484 54.64 41.8616 54.7111C41.866 54.7333 41.8704 54.76 41.8748 54.7822C41.888 54.88 41.9012 54.9778 41.91 55.0755C41.9144 55.1022 41.9144 55.1244 41.9188 55.1511C41.9276 55.2222 41.932 55.2978 41.9408 55.3689C41.9452 55.4089 41.9452 55.4444 41.9496 55.48C41.954 55.5422 41.9584 55.6044 41.9628 55.6622C41.9672 55.7022 41.9672 55.7467 41.9672 55.7867C41.9716 55.8267 41.9716 55.8711 41.9716 55.9111C41.7868 55.8089 41.5888 55.6933 41.3952 55.5689ZM45.6412 56.4755C45.0384 56.5733 44.418 56.5778 43.8196 56.4889C43.8196 56.4311 43.8196 56.3733 43.8196 56.3111C43.8196 54.36 43.3884 52.4889 42.5304 50.7555C41.646 48.96 40.326 47.3822 38.7156 46.2C36.5948 44.64 34.078 43.8178 31.4512 43.8178C31.3148 43.8178 31.1784 43.8222 31.0376 43.8267C31.0068 43.8267 30.976 43.8267 30.9496 43.8311C30.8176 43.8355 30.6812 43.8444 30.5492 43.8533C30.5316 43.8533 30.5096 43.8578 30.492 43.8578C30.3688 43.8667 30.25 43.88 30.1268 43.8933C30.1048 43.8978 30.074 43.8978 30.052 43.9022C29.92 43.9155 29.788 43.9333 29.656 43.9555C29.6296 43.96 29.6032 43.9644 29.5768 43.9689C29.4536 43.9867 29.3304 44.0089 29.2072 44.0311C29.194 44.0355 29.1808 44.0355 29.1676 44.04C29.0356 44.0667 28.9036 44.0933 28.7716 44.12C28.7452 44.1289 28.7144 44.1333 28.688 44.1378C28.556 44.1689 28.4284 44.2 28.2964 44.2355C28.2876 44.24 28.2832 44.24 28.2744 44.2444C28.1512 44.2755 28.0236 44.3111 27.9048 44.3511C27.8784 44.36 27.852 44.3644 27.8256 44.3733C27.698 44.4133 27.5748 44.4533 27.4472 44.4978C27.4252 44.5067 27.4076 44.5111 27.3856 44.52C27.2712 44.56 27.1568 44.6044 27.0424 44.6444C27.0248 44.6533 27.0028 44.6578 26.9852 44.6667C26.862 44.7155 26.7388 44.7644 26.6156 44.8178C26.5892 44.8267 26.5628 44.84 26.5408 44.8489C26.422 44.9022 26.2988 44.9555 26.1844 45.0133C26.18 45.0178 26.1756 45.0178 26.1712 45.0178C26.048 45.0755 25.9292 45.1378 25.8104 45.2C25.784 45.2133 25.7576 45.2267 25.7312 45.24C25.6124 45.3022 25.498 45.3689 25.3792 45.4311C25.366 45.44 25.3528 45.4444 25.3396 45.4533C25.234 45.5155 25.1284 45.5778 25.0184 45.6444C24.9964 45.6578 24.9744 45.6711 24.9524 45.6844C24.8424 45.7555 24.728 45.8267 24.618 45.9022C24.6092 45.9067 24.6048 45.9111 24.596 45.9155V42.4C24.684 42.3555 24.772 42.3111 24.8644 42.2711C24.904 42.2533 24.9436 42.2311 24.9832 42.2133C25.124 42.1467 25.2648 42.0844 25.4056 42.0222C25.4232 42.0133 25.4408 42.0089 25.4628 42C25.586 41.9467 25.7092 41.8978 25.8324 41.8489C25.8852 41.8311 25.9336 41.8089 25.9864 41.7911C26.0788 41.7555 26.1712 41.72 26.268 41.6844C26.3252 41.6622 26.3868 41.6444 26.444 41.6222C26.532 41.5911 26.62 41.56 26.7036 41.5333C26.7652 41.5111 26.8268 41.4933 26.8928 41.4755C26.9764 41.4489 27.06 41.4222 27.148 41.4C27.2096 41.3822 27.2756 41.36 27.3416 41.3422C27.4252 41.32 27.5088 41.2978 27.5924 41.2755C27.6584 41.2578 27.7244 41.2444 27.7948 41.2267C27.8784 41.2089 27.962 41.1867 28.0456 41.1689C28.1116 41.1555 28.182 41.1378 28.248 41.1244C28.3316 41.1067 28.4152 41.0889 28.4988 41.0711C28.5648 41.0578 28.6352 41.0444 28.7012 41.0311C28.7848 41.0178 28.8684 41 28.9564 40.9867C29.0224 40.9733 29.0928 40.9644 29.1588 40.9555C29.2424 40.9422 29.3304 40.9289 29.414 40.92C29.48 40.9111 29.5504 40.9022 29.6164 40.8933C29.7044 40.8844 29.7924 40.8755 29.8804 40.8622C29.9464 40.8533 30.0124 40.8489 30.0784 40.8444C30.1708 40.8355 30.2632 40.8267 30.3556 40.8222C30.4172 40.8178 30.4788 40.8133 30.5404 40.8089C30.646 40.8 30.7472 40.7955 30.8484 40.7955C30.9012 40.7911 30.9496 40.7911 31.0024 40.7867C31.1564 40.7822 31.3104 40.7778 31.4688 40.7778C34.6456 40.7778 37.6948 41.7467 40.2864 43.5822C41.5536 44.48 42.6756 45.56 43.6216 46.7911C44.5544 48.0044 45.298 49.3378 45.8392 50.76C45.9228 50.9822 46.002 51.2089 46.0768 51.4311C46.0812 51.44 46.0812 51.4444 46.0856 51.4489C46.1164 51.5422 46.1472 51.64 46.178 51.7378C46.1868 51.7689 46.1956 51.7955 46.2044 51.8267C46.2264 51.8933 46.244 51.96 46.266 52.0267C46.2748 52.0622 46.288 52.1022 46.2968 52.1378C46.31 52.2 46.3276 52.2622 46.3452 52.32C46.354 52.36 46.3628 52.4 46.376 52.44C46.3892 52.4978 46.4068 52.5555 46.42 52.6133C46.4288 52.6533 46.4376 52.6978 46.4508 52.7378C46.464 52.7955 46.4772 52.8489 46.4904 52.9067C46.4992 52.9511 46.508 52.9911 46.5168 53.0355C46.53 53.0933 46.5388 53.1467 46.552 53.2044C46.5608 53.2489 46.5696 53.2933 46.5784 53.3333C46.5872 53.3911 46.6004 53.4444 46.6092 53.5022C46.618 53.5467 46.6224 53.5911 46.6312 53.6355C46.64 53.6889 46.6488 53.7467 46.6576 53.8C46.6664 53.8444 46.6708 53.8889 46.6796 53.9333C46.6884 53.9867 46.6972 54.0444 46.706 54.0978C46.7148 54.1422 46.7192 54.1911 46.7236 54.2355C46.7324 54.2889 46.7368 54.3467 46.7456 54.4C46.75 54.4444 46.7544 54.4933 46.7632 54.5378C46.7676 54.5911 46.7764 54.6489 46.7808 54.7022C46.7852 54.7467 46.7896 54.7955 46.794 54.84C46.7984 54.8933 46.8028 54.9511 46.8072 55.0044C46.8116 55.0489 46.816 55.0978 46.8204 55.1467C46.8248 55.2 46.8292 55.2533 46.8292 55.3111C46.8336 55.3555 46.8336 55.4044 46.838 55.4533C46.8424 55.5066 46.8424 55.56 46.8468 55.6178C46.8512 55.6667 46.8512 55.7111 46.8512 55.76C46.8512 55.8133 46.8556 55.8667 46.8556 55.9244C46.8556 55.9733 46.86 56.0178 46.86 56.0667C46.86 56.0933 46.86 56.1244 46.86 56.1511C46.4464 56.3067 46.046 56.4089 45.6412 56.4755ZM50.754 50.4222C50.754 52.0533 50.1292 53.5867 48.9896 54.7422C48.8664 54.8667 48.7388 54.9822 48.6068 55.0978C48.6068 55.08 48.6024 55.0622 48.6024 55.04C48.5892 54.88 48.576 54.7244 48.5628 54.5689C48.5628 54.5555 48.5584 54.5422 48.5584 54.5289C48.5452 54.3822 48.5276 54.2355 48.51 54.0889C48.5056 54.0533 48.5012 54.0178 48.4968 53.9822C48.4748 53.8267 48.4528 53.6711 48.4308 53.52C48.4264 53.4933 48.422 53.4667 48.4176 53.44C48.3956 53.3022 48.3692 53.1644 48.3428 53.0267C48.3384 52.9955 48.3296 52.9689 48.3252 52.9378C48.2944 52.7867 48.2636 52.6311 48.2284 52.48C48.224 52.4489 48.2152 52.4178 48.2064 52.3867C48.1756 52.2489 48.1404 52.1067 48.1052 51.9689C48.1008 51.9511 48.0964 51.9289 48.092 51.9111C48.0524 51.76 48.0128 51.6089 47.9688 51.4578C47.96 51.4222 47.9468 51.3911 47.938 51.3555C47.894 51.2044 47.8456 51.0489 47.7972 50.8978C47.7928 50.8889 47.7928 50.8844 47.7884 50.8755C47.5596 50.1689 47.2824 49.48 46.9656 48.8133C46.4376 47.7022 45.7908 46.6444 45.034 45.6622C44.8404 45.4133 44.6424 45.1644 44.4356 44.9289C44.4312 44.92 44.4224 44.9155 44.418 44.9067C44.4136 44.9022 44.4136 44.9022 44.4092 44.8978C43.4896 43.8355 42.4512 42.8889 41.3028 42.0755C38.4032 40.0222 34.9932 38.9378 31.4424 38.9378C31.2796 38.9378 31.1124 38.9422 30.9452 38.9467C30.8924 38.9467 30.8396 38.9511 30.7868 38.9511C30.6768 38.9555 30.5624 38.96 30.448 38.9689C30.3908 38.9733 30.3292 38.9778 30.2676 38.9822C30.1576 38.9911 30.052 39 29.942 39.0089C29.8848 39.0133 29.8232 39.0178 29.766 39.0267C29.6472 39.04 29.5284 39.0533 29.414 39.0667C29.37 39.0711 29.3216 39.0755 29.2776 39.0844C29.1148 39.1022 28.952 39.1289 28.7892 39.1511C28.7584 39.1555 28.7276 39.16 28.7012 39.1644C28.5692 39.1867 28.4328 39.2089 28.3008 39.2355C28.2436 39.2444 28.1908 39.2578 28.138 39.2667C28.0324 39.2844 27.9224 39.3111 27.8168 39.3333C27.7596 39.3467 27.698 39.36 27.6408 39.3733C27.5352 39.3955 27.4296 39.4222 27.324 39.4489C27.2668 39.4622 27.214 39.4755 27.1568 39.4889C27.0336 39.52 26.9104 39.5555 26.7872 39.5911C26.752 39.6 26.7168 39.6089 26.6816 39.6222C26.5232 39.6667 26.3692 39.7155 26.2108 39.7644C26.1712 39.7778 26.1272 39.7911 26.0876 39.8044C25.9732 39.8444 25.8544 39.88 25.7444 39.92C25.6872 39.9422 25.6344 39.96 25.5772 39.9822C25.476 40.0178 25.3748 40.0578 25.2736 40.0978C25.2164 40.12 25.1592 40.1422 25.102 40.1644C24.9964 40.2044 24.8952 40.2489 24.794 40.2933C24.7412 40.3111 24.6928 40.3333 24.6444 40.3555C24.6268 40.3644 24.6092 40.3689 24.5916 40.3778V37.0755C26.5936 36.3467 28.6924 35.9467 30.844 35.8844C31.042 35.88 31.2444 35.8755 31.4468 35.8755C33.9504 35.8755 36.3968 36.3333 38.7156 37.2355C39.4768 37.5333 40.2204 37.8755 40.942 38.2622C41.6592 38.6489 42.3588 39.08 43.0276 39.5511C43.2652 39.72 43.516 39.9022 43.7668 40.0978C44.3916 40.5822 44.9856 41.1022 45.5532 41.6578C46.1164 42.2133 46.6532 42.8 47.1504 43.4178C48.1316 44.6311 48.9676 45.9555 49.6452 47.3555C49.7024 47.4711 49.7552 47.5867 49.808 47.7067C49.8256 47.7511 49.8476 47.7911 49.8652 47.8355C49.9004 47.9111 49.9312 47.9822 49.9664 48.0578C49.9884 48.1111 50.0104 48.16 50.0324 48.2133C50.0632 48.28 50.0896 48.3467 50.1204 48.4178C50.1424 48.4711 50.1644 48.5244 50.1864 48.5778C50.2128 48.6444 50.2392 48.7111 50.2656 48.7778C50.2876 48.8311 50.3096 48.8889 50.3272 48.9422C50.3536 49.0089 50.38 49.0755 50.402 49.1422C50.424 49.1955 50.4416 49.2533 50.4636 49.3067C50.4856 49.3733 50.512 49.44 50.534 49.5067C50.5516 49.5644 50.5736 49.6178 50.5912 49.6711C50.6176 49.7378 50.6352 49.8089 50.6616 49.8755C50.6792 49.9289 50.6968 49.9867 50.7144 50.04C50.7276 50.0844 50.7452 50.1333 50.7584 50.1778V50.4222H50.754ZM53.9176 46.8578H52.3116C53.8076 46.0667 55.4664 45.6533 57.1868 45.6533C58.982 45.6533 60.72 46.1111 62.26 46.9644L53.9176 46.8578ZM64.0464 45.9067C62.0268 44.5467 59.6552 43.8133 57.1912 43.8133C54.912 43.8133 52.7252 44.4311 50.8024 45.6044C50.7804 45.5689 50.7628 45.5289 50.7408 45.4933C50.71 45.4311 50.6748 45.3733 50.6396 45.3155C50.5736 45.2 50.5076 45.08 50.4372 44.9644C50.4064 44.9111 50.3756 44.8578 50.3448 44.8044C50.248 44.6444 50.1512 44.48 50.05 44.3244C50.0456 44.32 50.0456 44.3155 50.0412 44.3111C49.9356 44.1467 49.83 43.9867 49.72 43.8267C49.6848 43.7733 49.654 43.7244 49.6144 43.6755C49.5396 43.5644 49.4604 43.4533 49.3856 43.3422C49.346 43.2844 49.3064 43.2311 49.2624 43.1733C49.2316 43.1333 49.2008 43.0889 49.1744 43.0489C51.5812 41.56 54.3312 40.7778 57.1868 40.7778C59.5672 40.7778 61.9256 41.3378 64.042 42.4044V45.9067H64.0464ZM64.0464 40.3733C61.8948 39.4311 59.554 38.9378 57.1912 38.9378C53.9176 38.9378 50.7628 39.8578 48.0216 41.6089C47.9424 41.52 47.8676 41.4311 47.7884 41.3467C47.7488 41.3022 47.7048 41.2533 47.6608 41.2089C47.5508 41.0889 47.4408 40.9689 47.3264 40.8533C47.3044 40.8267 47.2824 40.8044 47.2604 40.7822C47.124 40.6444 46.9876 40.5067 46.8512 40.3689C46.8116 40.3289 46.772 40.2933 46.7324 40.2533C46.6312 40.1555 46.5256 40.0578 46.4244 39.96C46.376 39.9155 46.332 39.8711 46.2836 39.8267C46.1736 39.7244 46.0636 39.6267 45.9492 39.5244C45.914 39.4933 45.8788 39.4622 45.8436 39.4311C45.8348 39.4222 45.8216 39.4133 45.8128 39.4044C47.5332 38.2222 49.4076 37.32 51.3964 36.72C53.2664 36.1555 55.2156 35.8711 57.1868 35.8711C57.3892 35.8711 57.5916 35.8755 57.7896 35.88C59.9412 35.9422 62.04 36.3467 64.042 37.0711V40.3733H64.0464ZM64.0464 35.1244C64.042 35.1244 64.0376 35.1244 64.0332 35.12C63.1092 34.8133 62.1676 34.5733 61.2084 34.3955C61.0896 34.3733 60.9708 34.3511 60.8476 34.3333C60.7288 34.3111 60.61 34.2933 60.4868 34.2755C60.368 34.2578 60.2448 34.24 60.126 34.2222C60.0028 34.2044 59.884 34.1911 59.7608 34.1778C59.5188 34.1511 59.2768 34.1244 59.0304 34.1067C58.9116 34.0978 58.7884 34.0844 58.6652 34.0755C58.5464 34.0667 58.432 34.0622 58.3132 34.0533C57.4288 32.6844 56.7468 31.1155 56.2936 29.3867C55.9592 28.12 55.7436 26.7511 55.6468 25.2978C55.6468 25.2933 55.6468 25.2889 55.6468 25.2844L64.042 33.7644V35.1244H64.0464ZM64.0464 31.1644L55.8184 22.8578C55.7524 22.7911 55.682 22.7378 55.6028 22.6978C55.6644 20.6711 55.9636 18.8356 56.4916 17.1955C56.4916 17.1911 56.496 17.1911 56.496 17.1867L59.554 20.2756L64.0464 24.8089V31.1644ZM64.0332 22.1911L62.6692 20.8178L61.3756 19.5111L61.358 19.4933L57.2308 15.3244C57.9436 13.84 58.8896 12.56 60.0644 11.4756L64.042 15.4933V22.2044L64.0332 22.1911Z" fill="#0C1E34"/>
<path d="M47.3289 33.6756V28.2711C47.3289 27.92 47.0473 27.6311 46.6953 27.6311H42.4405C42.0885 27.6311 41.8069 27.9156 41.8069 28.2711V33.6756C41.8069 34.0267 42.0885 34.3156 42.4405 34.3156H46.6953C47.0429 34.3156 47.3289 34.0267 47.3289 33.6756ZM44.0113 33.0356H43.0697V28.9111H44.0113V33.0356ZM46.0617 33.0356H45.1245V28.9111H46.0617V33.0356Z" fill="#0C1E34"/>
</svg>
