<svg width="64" height="71" viewBox="0 0 64 71" fill="none" xmlns="http://www.w3.org/2000/svg">
<path d="M64 0H0V71H64V0Z" fill="white"/>
<path d="M9.13619 50.6155C9.13619 50.932 9.53043 51.0562 10.9768 51.0562C12.5679 51.0562 12.7688 50.9503 12.7688 50.7528C12.7688 50.5422 12.66 50.4363 10.7464 50.3748C8.16595 50.2885 7.47987 49.853 7.47987 48.8917C7.47987 47.8676 8.39123 47.334 10.8565 47.334C13.4805 47.334 14.3061 47.6688 14.3061 48.7491C14.3061 48.842 14.3061 48.9348 14.2997 49.0408C14.118 49.029 13.7954 49.0225 13.4856 49.0225C13.1644 49.0225 12.8418 49.029 12.66 49.0408V48.9231C12.66 48.6066 12.4412 48.5006 10.8322 48.5006C9.34995 48.5006 9.13235 48.5935 9.13235 48.7805C9.13235 48.9662 9.24755 49.0473 11.2828 49.1533C13.6943 49.2775 14.4341 49.6372 14.4341 50.6796C14.4341 51.7651 13.5906 52.287 10.9973 52.287C8.34899 52.287 7.44531 51.8344 7.44531 50.8901C7.44531 50.779 7.45171 50.6599 7.46963 50.537C7.68211 50.5619 8.00339 50.5802 8.30803 50.5802C8.61779 50.5802 8.90963 50.5736 9.14003 50.5619V50.6155H9.13619Z" fill="#0C1E34"/>
<path d="M22.3968 52.1365C22.4211 51.4721 22.4391 50.8273 22.4455 50.0583C22.4455 49.7418 22.4698 49.4004 22.4877 49.0721L22.4455 49.0604C22.2931 49.3703 22.1242 49.6934 21.9168 49.9667L20.313 52.1391H19.481L17.6839 49.6947C17.4829 49.4214 17.3075 49.0996 17.1552 48.8014L17.113 48.8132C17.1309 49.1362 17.1552 49.458 17.1616 49.8124C17.168 50.6808 17.1859 51.4067 17.2218 52.1391H15.5936C15.6295 51.4695 15.6423 50.792 15.6423 49.8059C15.6423 48.7883 15.6307 48.0925 15.6115 47.4844H18.0525C18.3866 47.9866 18.8845 48.7439 19.5104 49.6685C19.6743 49.904 19.8509 50.1708 20.0211 50.4441H20.057C20.2208 50.1642 20.3783 49.8974 20.5306 49.6685C21.113 48.7818 21.6595 47.9748 21.9885 47.4844H24.144C24.1261 48.0925 24.1082 48.787 24.1082 49.8059C24.1082 50.792 24.1146 51.4695 24.1568 52.1391H22.3968V52.1365Z" fill="#0C1E34"/>
<path d="M31.1763 52.1359C31.1213 51.9999 30.9754 51.6951 30.7757 51.3171C30.1446 51.3106 29.5059 51.3106 29.0208 51.3106C28.5779 51.3106 27.9277 51.3106 27.3145 51.3171C27.1085 51.6703 26.9446 51.9685 26.8653 52.1359H24.8672C25.735 50.9078 27.4182 48.3012 27.8125 47.4824H30.3392C30.7526 48.3012 32.4346 50.8764 33.3395 52.1359H31.1763ZM28.6445 49.0885C28.4384 49.4233 28.2016 49.8144 27.9699 50.2054C28.3526 50.212 28.7354 50.212 29.0272 50.212C29.3434 50.212 29.7555 50.212 30.169 50.2054C29.9437 49.8078 29.7069 49.4116 29.4944 49.0754C29.3062 48.7838 29.1731 48.5418 29.0694 48.3496L28.6445 49.0885Z" fill="#0C1E34"/>
<path d="M39.217 50.2316C40.2794 50.3375 40.7658 50.5115 40.9604 51.2178C41.0692 51.6206 41.1665 51.9567 41.2458 52.1359H39.7341C39.4615 52.1359 39.4129 52.0744 39.2605 51.4663C39.1274 50.9196 38.9265 50.8202 37.8218 50.8202H35.6484C35.6599 51.3472 35.6842 51.8011 35.7213 52.1359H33.9844C33.9959 51.4597 34.0087 50.8084 34.0087 49.8092C34.0087 48.823 34.0023 48.1521 33.9844 47.4824H38.5028C40.1489 47.4824 40.9194 47.9232 40.9194 48.8662C40.9194 49.6666 40.4087 50.076 39.2196 50.2068V50.2316H39.217ZM37.9716 49.6614C38.9495 49.6614 39.3015 49.494 39.3015 49.1526C39.3015 48.7995 38.9559 48.6804 37.9895 48.6804C37.5274 48.6804 36.2346 48.687 35.6215 48.7053C35.6215 49.0218 35.6215 49.3383 35.6279 49.6417C36.0657 49.6614 36.9937 49.6614 37.9716 49.6614Z" fill="#0C1E34"/>
<path d="M48.0588 47.4824C48.0472 47.6629 48.0472 47.935 48.0472 48.1769C48.0472 48.4123 48.0472 48.704 48.0588 48.9028C47.2152 48.8779 46.3768 48.8779 45.6472 48.8779C45.6472 50.4356 45.6536 51.7815 45.6716 52.1424C45.4476 52.1241 45.07 52.1241 44.8152 52.1241C44.5605 52.1241 44.2021 52.1241 43.9589 52.1424C43.9768 51.7828 43.9896 50.4422 43.9896 48.8779C43.2613 48.8779 42.4229 48.8779 41.5781 48.9028C41.5845 48.704 41.5845 48.4189 41.5845 48.1769C41.5845 47.935 41.5845 47.6681 41.5781 47.4824H48.0588Z" fill="#0C1E34"/>
<path d="M11.2947 59.7927C8.46461 59.7927 7.30493 58.7621 7.30493 57.2423C7.30493 55.6598 8.58621 54.7168 11.2947 54.7168C14.0032 54.7168 15.2845 55.6598 15.2845 57.2423C15.2845 58.7634 14.1248 59.7927 11.2947 59.7927ZM13.5782 57.2489C13.5782 56.4851 12.9894 56.0639 11.2947 56.0639C9.59997 56.0639 9.01117 56.4864 9.01117 57.2489C9.01117 57.9996 9.59357 58.4469 11.2947 58.4469C13.0022 58.4469 13.5782 57.9996 13.5782 57.2489Z" fill="#0C1E34"/>
<path d="M21.6076 57.675C22.67 57.7809 23.1564 57.9548 23.351 58.6611C23.4598 59.0639 23.5571 59.4001 23.6364 59.5792H22.1248C21.8521 59.5792 21.8035 59.5178 21.6512 58.9096C21.518 58.3629 21.3171 58.2635 20.2124 58.2635H18.039C18.0505 58.7906 18.0748 59.2444 18.112 59.5792H16.375C16.3865 58.9031 16.3993 58.2517 16.3993 57.2525C16.3993 56.2664 16.3929 55.5954 16.375 54.9258H20.8934C22.5395 54.9258 23.31 55.3665 23.31 56.3095C23.31 57.1099 22.7993 57.5193 21.6102 57.6501V57.675H21.6076ZM20.3622 57.1047C21.3401 57.1047 21.6921 56.9373 21.6921 56.596C21.6921 56.2428 21.3465 56.1238 20.3801 56.1238C19.918 56.1238 18.6252 56.1303 18.0121 56.1487C18.0121 56.4652 18.0121 56.7817 18.0185 57.0851C18.4563 57.1047 19.3856 57.1047 20.3622 57.1047Z" fill="#0C1E34"/>
<path d="M30.114 59.5812C30.059 59.4452 29.9131 59.1404 29.7134 58.7625C29.0824 58.7559 28.4436 58.7559 27.9585 58.7559C27.5156 58.7559 26.8654 58.7559 26.2523 58.7625C26.0462 59.1156 25.8824 59.4138 25.803 59.5812H23.8049C24.6728 58.3531 26.356 55.7465 26.7502 54.9277H29.2769C29.6904 55.7465 31.3723 58.3217 32.2772 59.5812H30.114ZM27.5822 56.5338C27.3761 56.8686 27.1393 57.2597 26.9077 57.6508C27.2904 57.6573 27.6731 57.6573 27.9649 57.6573C28.2811 57.6573 28.6932 57.6573 29.1067 57.6508C28.8814 57.2532 28.6446 56.8569 28.4321 56.5207C28.244 56.2291 28.1108 55.9871 28.0072 55.7949L27.5822 56.5338Z" fill="#0C1E34"/>
<path d="M40.228 54.9277C40.2101 55.4993 40.2037 56.2618 40.2037 57.2492C40.2037 58.2733 40.2037 58.9613 40.2152 59.5825H38.4846C38.1262 59.1666 36.2382 57.8509 35.1938 57.1067C34.939 56.921 34.6779 56.7339 34.4654 56.5364C34.4898 56.9092 34.4962 57.2806 34.5077 57.6599C34.5141 58.6212 34.5192 59.2974 34.5384 59.5838H32.9768C32.9768 58.9573 32.9947 58.2498 32.9947 57.2571C32.9947 56.2709 32.9947 55.5634 32.9768 54.9303H34.957C35.181 55.2285 37.2648 56.7418 38.1941 57.3944C38.413 57.5435 38.6318 57.6612 38.7957 57.8221C38.7714 57.4807 38.7598 57.1525 38.7598 56.8974C38.7598 56.0355 38.7419 55.2599 38.7176 54.9303H40.228V54.9277Z" fill="#0C1E34"/>
<path d="M45.3729 59.731C42.8168 59.731 41.3281 58.9802 41.3281 57.2237C41.3281 55.3744 42.8769 54.7793 45.282 54.7793C47.5771 54.7793 48.9979 55.1638 48.9979 56.5541C48.9979 56.5973 48.9979 56.647 48.9915 56.6901C48.8097 56.677 48.4872 56.6718 48.1774 56.6718C47.8433 56.6718 47.5272 56.6783 47.339 56.6901C47.339 56.6653 47.3454 56.6404 47.3454 56.6156C47.3454 56.1814 46.7681 56.044 45.2744 56.044C43.6948 56.044 43.0395 56.3736 43.0395 57.2538C43.0395 58.0542 43.6526 58.4819 45.3716 58.4819C46.6529 58.4819 47.2174 58.2831 47.3812 57.862C46.5377 57.862 45.4011 57.8685 44.6484 57.8868C44.6548 57.794 44.6548 57.5952 44.6548 57.5023C44.6548 57.3349 44.6548 57.1858 44.6484 57.0681C45.6328 57.0864 46.6401 57.0812 47.3748 57.0812C47.8241 57.0812 48.4014 57.0877 49.003 57.0681C49.1144 58.7435 48.7009 59.731 45.3729 59.731Z" fill="#0C1E34"/>
<path d="M56.6692 54.9277C56.6628 55.0638 56.6577 55.2809 56.6577 55.4744C56.6577 55.6732 56.6577 55.8969 56.6692 56.0264C55.4058 56.0198 53.1223 56.0146 51.987 56.0146V56.7287C53.299 56.7287 55.5876 56.7287 56.6026 56.7104C56.5962 56.9523 56.5911 57.4493 56.5962 57.7096C55.6004 57.6978 53.2862 57.6848 51.987 57.6848V58.4106C53.1223 58.4106 55.4852 58.4041 56.6692 58.3989C56.6577 58.548 56.6577 58.7834 56.6577 59.0005C56.6577 59.1993 56.6577 59.4282 56.6692 59.5838H50.25C50.2743 58.9508 50.2743 58.2498 50.2743 57.2571C50.2743 56.2709 50.2743 55.5568 50.25 54.9303H56.6692V54.9277Z" fill="#0C1E34"/>
<path d="M15.085 35.0125C14.733 35.0125 14.4015 34.9719 14.0917 34.8882C13.0319 34.6005 12.2946 33.8144 11.9554 32.6125C9.26612 30.4989 7.66868 27.5143 7.45492 24.2015C7.22068 20.5838 8.62356 17.0329 11.405 14.2027L11.5893 14.0156L11.6584 14.2707C12.7272 18.2362 18.2696 25.1039 24.0117 29.5808L24.15 29.688L24.0271 29.8136C20.7874 33.1121 17.4786 35.0125 15.085 35.0125ZM11.4396 14.6068C8.84116 17.3429 7.53428 20.7329 7.757 24.1805C7.96564 27.4202 9.5362 30.3381 12.1794 32.398L12.2204 32.4294L12.2332 32.4791C12.5391 33.613 13.1906 34.3232 14.1685 34.5874C14.4578 34.6659 14.7701 34.7038 15.1004 34.7038C17.3736 34.7038 20.5455 32.8819 23.6892 29.7168C18.0712 25.3001 12.6722 18.6272 11.4396 14.6068Z" fill="#0C1E34"/>
<path d="M14.3324 34.9265C11.3999 32.6403 8.56603 29.1195 8.01562 27.0765L8.30746 26.9941C8.84378 28.9821 11.6291 32.4297 14.5155 34.6806L14.3324 34.9265Z" fill="#0C1E34"/>
<path d="M18.5799 33.9165C13.5789 30.0177 8.74818 24.0197 7.8125 20.5433L8.10434 20.4609C9.02594 23.8811 13.808 29.8071 18.7642 33.6706L18.5799 33.9165Z" fill="#0C1E34"/>
<path d="M12.0263 32.6636C10.4698 32.0084 9.48424 30.8274 9.17576 29.2448C8.61 26.3426 10.3444 22.5014 13.8145 18.9688L14.0282 19.1872C10.6298 22.6465 8.92744 26.3832 9.47272 29.1834C9.75944 30.6587 10.6836 31.7625 12.1415 32.3759L12.0263 32.6636Z" fill="#0C1E34"/>
<path d="M11.5609 32.9019C11.479 32.9019 11.4111 32.8744 11.3612 32.809C11.2575 32.6704 11.0835 32.4402 13.0419 30.1318C14.295 28.6539 16.1075 26.7038 18.2809 24.4922L18.4947 24.7106C13.655 29.6374 11.7785 32.0531 11.6249 32.5828C11.6889 32.5645 11.8092 32.5148 12.023 32.3879L12.1753 32.6547C11.9513 32.7868 11.7286 32.9019 11.5609 32.9019Z" fill="#0C1E34"/>
<path d="M20.8727 35.5581C19.3111 35.5581 17.7636 35.3319 16.2967 34.8728C15.4865 35.052 14.7467 35.0625 14.1041 34.8885C13.0289 34.5968 12.2865 33.7925 11.955 32.5631L11.8359 32.121L12.1931 32.3996C13.4347 33.3674 14.835 34.0855 16.3198 34.5576C18.4766 34.0554 21.1659 32.3041 23.827 29.5955L23.9204 29.5L24.0254 29.5824C26.4382 31.4631 28.1687 32.4035 29.3899 32.8456C30.4484 32.1943 31.4391 31.4134 32.33 30.5058L32.5143 30.3187L32.5835 30.5738C33.0276 32.223 32.5937 32.9345 32.1508 33.2393C31.5684 33.6408 30.6289 33.6107 29.4219 33.1843C26.8145 34.7538 23.818 35.5581 20.8727 35.5581ZM16.8702 34.7224C20.8343 35.8106 25.331 35.2116 29.0519 33.047C27.635 32.4794 25.8903 31.4174 23.9447 29.9107C21.4756 32.4022 18.9719 34.0802 16.8702 34.7224ZM12.3953 32.9358C12.7409 33.8069 13.3399 34.3627 14.1809 34.5903C14.6353 34.7132 15.1422 34.7381 15.6939 34.6701C14.5227 34.2463 13.4116 33.6696 12.3953 32.9358ZM29.7649 32.9711C31.1895 33.4054 31.8091 33.1019 31.9793 32.9842C32.5655 32.5801 32.5259 31.6816 32.3531 30.9138C31.5569 31.6973 30.6878 32.3839 29.7649 32.9711Z" fill="#0C1E34"/>
<path d="M18.0636 36.8063C17.2341 36.8063 15.9132 36.1471 14.3516 34.9295L14.5346 34.6836C16.7567 36.4165 18.0392 36.6899 18.4629 36.3982C18.756 36.1955 18.6933 35.6933 18.5896 35.3075L18.8815 35.2251C19.1183 36.1013 18.8764 36.4859 18.6332 36.6546C18.4847 36.7566 18.2927 36.8063 18.0636 36.8063Z" fill="#0C1E34"/>
<path d="M24.8605 37.1116C23.4768 37.1116 21.2432 35.9881 18.5859 33.9178L18.769 33.6719C21.9357 36.1399 24.6237 37.2934 25.6144 36.6081C26.1687 36.2262 26.0611 35.3172 25.8743 34.6214L26.1661 34.539C26.5527 35.9751 26.1725 36.5963 25.7847 36.8644C25.544 37.0305 25.233 37.1116 24.8605 37.1116Z" fill="#0C1E34"/>
<path d="M20.0943 37.0642C19.782 37.0642 19.4697 37.0498 19.1599 37.0197C16.2505 36.7424 13.6994 35.1769 11.9766 32.6108L12.2262 32.4355C13.8978 34.9245 16.3708 36.4429 19.1894 36.711C22.5199 37.0289 26.0361 35.5745 28.838 32.722L29.0518 32.9404C26.4444 35.5941 23.2265 37.0642 20.0943 37.0642Z" fill="#0C1E34"/>
<path d="M22.5178 37.2997C22.4614 37.2997 22.4051 37.2997 22.3488 37.2984C18.4499 37.2513 14.7738 35.5929 12 32.6292L12.2189 32.416C14.9363 35.3182 18.5357 36.9426 22.3539 36.9897C22.409 36.9897 22.464 36.991 22.5203 36.991C26.0723 36.991 29.3965 35.5955 31.8976 33.049L32.1114 33.2674C29.5501 35.8728 26.1504 37.2997 22.5178 37.2997Z" fill="#0C1E34"/>
<path d="M20.8801 35.5566C17.675 35.5566 14.5288 34.6032 12.0149 32.644L11.9739 32.6126L11.9611 32.5629C10.8718 28.5215 14.4456 20.6938 19.9291 15.1131L20.0225 15.0176L20.1275 15.1C25.9157 19.6122 31.5054 26.5531 32.5896 30.5736L32.6126 30.6599L32.5499 30.724C29.4241 33.9048 25.1003 35.5566 20.8801 35.5566ZM12.2389 32.4308C17.9259 36.8279 26.8821 35.9922 32.2734 30.5697C31.1547 26.6159 25.7121 19.8738 20.0494 15.4283C14.7105 20.9083 11.2251 28.4941 12.2389 32.4308Z" fill="#0C1E34"/>
<path d="M18.5752 35.3034C18.0389 33.3154 15.2549 29.8678 12.3672 27.617L12.5502 27.3711C15.4827 29.6573 18.3153 33.1781 18.867 35.221L18.5752 35.3034Z" fill="#0C1E34"/>
<path d="M25.8786 34.6196C24.957 31.1995 20.1749 25.2734 15.2188 21.4099L15.4018 21.1641C20.4028 25.0629 25.2322 31.0609 26.1692 34.5372L25.8786 34.6196Z" fill="#0C1E34"/>
<path d="M15.165 33.2286C14.0117 33.2286 12.9544 33.0468 12.0469 32.6649L12.1621 32.3797C16.5474 34.2239 24.5128 31.2445 29.9221 25.7383L30.1358 25.9567C25.7582 30.4127 19.7102 33.2286 15.165 33.2286Z" fill="#0C1E34"/>
<path d="M12.1836 32.6542L12.0312 32.3874C14.0025 31.2142 20.0325 25.7524 25.4738 20.2148L25.6876 20.4333C20.2309 25.9879 14.174 31.4705 12.1836 32.6542Z" fill="#0C1E34"/>
<path d="M12.352 32.9221L11.9949 32.6436C9.2826 30.5287 7.6698 27.5297 7.45476 24.2011C7.22308 20.611 8.60292 17.0862 11.3421 14.2651C10.9364 12.6773 11.3626 11.9868 11.7978 11.686C13.1034 10.7848 16.21 12.06 20.1063 15.0982L20.2445 15.2055L20.1216 15.3311C14.7085 20.8425 11.1693 28.5355 12.2317 32.4801L12.352 32.9221ZM12.8653 11.7291C12.3444 11.7291 12.073 11.8704 11.968 11.9423C11.314 12.3935 11.4381 13.4568 11.657 14.2704L11.68 14.3567L11.6173 14.4208C8.89988 17.1883 7.52772 20.6542 7.75556 24.1802C7.95524 27.2799 9.40292 30.0866 11.8439 32.1283C11.1079 28.0136 14.5613 20.6149 19.785 15.2369C16.0026 12.3111 13.9213 11.7291 12.8653 11.7291Z" fill="#0C1E34"/>
<path d="M12.3734 27.6162C10.1514 25.8846 8.86881 25.6099 8.44513 25.9016C8.15201 26.1043 8.21473 26.6065 8.31841 26.9924L8.02657 27.0748C7.78977 26.1985 8.03169 25.814 8.27489 25.6452C8.96353 25.1705 10.5635 25.8153 12.5565 27.3703L12.3734 27.6162Z" fill="#0C1E34"/>
<path d="M15.2148 21.4088C12.048 18.9409 9.3626 17.7873 8.36932 18.4726C7.81508 18.8545 7.9226 19.7635 8.10948 20.4593L7.81764 20.5417C7.43108 19.1057 7.81124 18.4844 8.20036 18.2163C9.33572 17.4329 12.0276 18.5341 15.3991 21.163L15.2148 21.4088Z" fill="#0C1E34"/>
<path d="M11.9695 32.6098C8.09115 26.8354 9.40827 17.5847 14.9046 11.9883L15.1183 12.2067C9.71931 17.7024 8.41883 26.7766 12.2191 32.4345L11.9695 32.6098Z" fill="#0C1E34"/>
<path d="M11.9797 32.6282C6.40147 26.6721 6.34387 17.2658 11.8492 11.6602L12.0629 11.8786C6.67283 17.3652 6.73299 26.5779 12.1986 32.4137L11.9797 32.6282Z" fill="#0C1E34"/>
<path d="M23.9338 29.9104L23.8289 29.828C18.0407 25.3158 12.451 18.3748 11.3668 14.3544L11.3438 14.2681L11.4065 14.204C16.9053 8.60622 26.1175 7.74432 31.9402 12.284L31.9812 12.3154L31.994 12.3651C33.0833 16.4065 29.5095 24.2342 24.0273 29.8136L23.9338 29.9104ZM11.6817 14.3596C12.8004 18.3134 18.2429 25.0555 23.9069 29.501C29.2445 24.021 32.73 16.4352 31.7149 12.4985C26.0279 8.10137 17.073 8.93711 11.6817 14.3596Z" fill="#0C1E34"/>
<path d="M28.5486 23.7641C23.5477 19.8653 18.7182 13.8674 17.7812 10.391L18.0731 10.3086C18.9947 13.7287 23.7768 19.6548 28.7329 23.517L28.5486 23.7641Z" fill="#0C1E34"/>
<path d="M31.3871 17.5573C28.4546 15.2712 25.6207 11.749 25.0703 9.7074L25.3622 9.625C25.8985 11.613 28.6825 15.0606 31.5702 17.3115L31.3871 17.5573Z" fill="#0C1E34"/>
<path d="M14.0341 19.1919L13.8203 18.9735C19.3077 13.3875 27.4216 10.3794 31.908 12.2667L31.7928 12.5531C27.4088 10.7077 19.4421 13.6857 14.0341 19.1919Z" fill="#0C1E34"/>
<path d="M18.4794 24.7115L18.2656 24.493C23.721 18.9397 29.7779 13.4571 31.7683 12.2734L31.9207 12.5402C29.9482 13.7134 23.9194 19.1725 18.4794 24.7115Z" fill="#0C1E34"/>
<path d="M31.0835 33.5232C29.4886 33.5232 26.9068 32.2232 23.8336 29.8284L23.6953 29.7212L23.8182 29.5956C29.2313 24.0855 32.7705 16.3925 31.7068 12.4479L31.5878 12.0059L31.9449 12.2844C34.6572 14.3993 36.27 17.3983 36.4851 20.7269C36.7167 24.317 35.3369 27.8418 32.5977 30.6616C33.0035 32.2494 32.5772 32.9399 32.142 33.2407C31.8668 33.4304 31.511 33.5232 31.0835 33.5232ZM24.1561 29.6885C29.8073 34.0569 31.6582 33.2002 31.9743 32.9831C32.6284 32.5319 32.5043 31.4685 32.2854 30.655L32.2623 30.5687L32.3251 30.5046C35.0425 27.7384 36.4134 24.2725 36.1855 20.7465C35.9859 17.6468 34.5382 14.8401 32.0972 12.7984C32.8332 16.9144 29.3798 24.3118 24.1561 29.6885Z" fill="#0C1E34"/>
<path d="M34.8293 26.9573C33.4456 26.9573 31.212 25.8338 28.5547 23.7635L28.7377 23.5176C31.9044 25.9856 34.5912 27.1391 35.5832 26.4538C36.1374 26.0719 36.0299 25.1629 35.843 24.4671L36.1349 24.3847C36.5214 25.8208 36.1413 26.442 35.7534 26.7101C35.5128 26.8749 35.2017 26.9573 34.8293 26.9573Z" fill="#0C1E34"/>
<path d="M35.1183 19.4352C34.2888 19.4352 32.9679 18.776 31.4062 17.5584L31.5893 17.3125C33.8114 19.0441 35.0939 19.3188 35.5176 19.0271C35.8107 18.8244 35.748 18.3222 35.6443 17.9364L35.9362 17.854C36.173 18.7302 35.9311 19.1148 35.6879 19.2835C35.5381 19.3842 35.3474 19.4352 35.1183 19.4352Z" fill="#0C1E34"/>
<path d="M29.0341 32.9405L28.8203 32.7221C34.2194 27.2263 35.5198 18.1522 31.7195 12.4956L31.9691 12.3203C35.8475 18.0946 34.5317 27.344 29.0341 32.9405Z" fill="#0C1E34"/>
<path d="M32.0929 33.2662L31.8791 33.0478C37.2679 27.5612 37.2078 18.3498 31.7422 12.514L31.9611 12.3008C37.5393 18.2569 37.5982 27.6619 32.0929 33.2662Z" fill="#0C1E34"/>
<path d="M32.3575 30.9103L32.2884 30.6553C31.2196 26.6898 25.6772 19.822 19.9351 15.3451L19.7969 15.2379L19.9198 15.1123C23.6356 11.3299 27.4423 9.38509 29.8538 10.039C30.9137 10.3268 31.6522 11.1128 31.9902 12.3148C34.6794 14.4283 36.2769 17.4129 36.4906 20.7258C36.7236 24.3421 35.322 27.893 32.5418 30.7233L32.3575 30.9103ZM20.2564 15.2065C25.8743 19.6259 31.2746 26.2974 32.5073 30.3191C35.1057 27.5844 36.4113 24.1943 36.1886 20.7467C35.9786 17.5071 34.4094 14.5892 31.7662 12.5293L31.7252 12.4979L31.7124 12.4482C31.4065 11.3142 30.755 10.604 29.777 10.3399C27.4935 9.71861 23.857 11.5823 20.2564 15.2065Z" fill="#0C1E34"/>
<path d="M35.8395 24.4653C34.9179 21.0452 30.1358 15.1191 25.1797 11.2556L25.3627 11.0098C30.3637 14.9086 35.1931 20.9066 36.1301 24.3829L35.8395 24.4653Z" fill="#0C1E34"/>
<path d="M35.6455 17.9323C35.1092 15.9444 32.3239 12.4968 29.4375 10.2459L29.6205 10C32.553 12.2862 35.3869 15.807 35.9373 17.8499L35.6455 17.9323Z" fill="#0C1E34"/>
<path d="M30.1356 25.954L29.9219 25.7356C33.319 22.2775 35.0214 18.5409 34.4761 15.7407C34.1894 14.2654 33.2665 13.1615 31.8073 12.5481L31.9225 12.2617C33.479 12.917 34.4646 14.098 34.7731 15.6805C35.3388 18.5814 33.6044 22.4227 30.1356 25.954Z" fill="#0C1E34"/>
<path d="M25.6825 20.4321L25.4688 20.2137C30.3072 15.2882 32.1836 12.8725 32.3372 12.3428C32.2732 12.3611 32.1529 12.4108 31.9392 12.5377L31.7868 12.2709C32.1209 12.0721 32.4499 11.9164 32.6009 12.1166C32.7046 12.2552 32.8787 12.4854 30.9203 14.7938C29.6672 16.2704 27.856 18.2205 25.6825 20.4321Z" fill="#0C1E34"/>
<path d="M20.0302 15.4274L19.9252 15.3451C17.5137 13.4643 15.7818 12.5239 14.5607 12.0819C13.5022 12.7332 12.5114 13.514 11.6193 14.4217L11.435 14.6087L11.3658 14.3537C10.9217 12.7044 11.3556 11.9929 11.7985 11.6882C12.3809 11.2867 13.3204 11.3168 14.5274 11.7431C18.5121 9.34447 23.4158 8.73237 27.65 10.056C28.4615 9.87678 29.2014 9.86631 29.8426 10.0403C30.9178 10.3319 31.6615 11.1363 31.993 12.3657L32.1121 12.8078L31.755 12.5292C30.5134 11.5613 29.113 10.8433 27.6282 10.3712C25.4714 10.8734 22.7822 12.6246 20.1223 15.332L20.0302 15.4274ZM14.8961 11.8818C16.313 12.4494 18.0577 13.5114 20.0033 15.0181C22.4711 12.5266 24.9748 10.8485 27.0766 10.2077C23.1137 9.11951 18.617 9.71852 14.8961 11.8818ZM12.866 11.7301C12.345 11.7301 12.0737 11.8713 11.9687 11.9432C11.3825 12.3474 11.4222 13.2459 11.595 14.0136C12.3911 13.2302 13.2615 12.5449 14.1844 11.9563C13.6302 11.7876 13.1975 11.7301 12.866 11.7301ZM28.2542 10.2587C29.4241 10.6824 30.5351 11.2592 31.5527 11.9929C31.2071 11.1219 30.6081 10.566 29.7671 10.3385C29.3127 10.2155 28.8046 10.1907 28.2542 10.2587Z" fill="#0C1E34"/>
<path d="M25.1835 11.2565C22.0168 8.78852 19.3288 7.63497 18.3381 8.3203C17.7839 8.7022 17.8914 9.61118 18.0783 10.307L17.7864 10.3894C17.3999 8.95332 17.78 8.33207 18.1679 8.06395C19.3032 7.28053 21.9951 8.38177 25.3666 11.0106L25.1835 11.2565Z" fill="#0C1E34"/>
<path d="M29.4281 10.2453C27.2061 8.51362 25.9222 8.23896 25.4998 8.53193C25.2067 8.73465 25.2694 9.23688 25.3731 9.6227L25.0813 9.7051C24.8445 8.82882 25.0864 8.4443 25.3296 8.27558C26.0169 7.80213 27.6169 8.44561 29.6112 10.0007L29.4281 10.2453Z" fill="#0C1E34"/>
<path d="M31.7228 12.4939C30.0511 10.005 27.5781 8.48653 24.7596 8.21841C21.4277 7.9019 17.9128 9.35496 15.1122 12.2075L14.8984 11.9891C17.7644 9.07246 21.3688 7.5867 24.7877 7.91106C27.6972 8.18833 30.2482 9.75387 31.9724 12.3199L31.7228 12.4939Z" fill="#0C1E34"/>
<path d="M31.7506 12.5126C29.0319 9.61036 25.4338 7.98596 21.6155 7.93888C17.9944 7.89702 14.6127 9.29385 12.0731 11.8795L11.8594 11.6611C14.4168 9.05712 17.8165 7.62891 21.4491 7.62891C21.5055 7.62891 21.5618 7.62891 21.6181 7.63021C25.517 7.6773 29.1931 9.3357 31.9682 12.2994L31.7506 12.5126Z" fill="#0C1E34"/>
<path d="M21.9225 37.4585C21.6601 37.4585 21.3836 37.4467 21.175 37.431C20.8243 37.4062 20.334 37.3539 19.6774 37.2702C19.2908 37.2205 18.8096 37.1119 18.5152 37.0347C18.0313 36.9066 17.3836 36.7065 16.9024 36.5351C16.4864 36.3873 15.5801 36.0015 14.7942 35.5411C14.4307 35.3293 13.4656 34.7642 12.4761 33.8984C11.9782 33.4629 11.223 32.7619 10.4141 31.7064C10.1465 31.3585 9.94046 31.0538 9.93918 31.0512C9.73182 30.7438 9.73182 30.7438 9.41566 30.2298C9.17118 29.8322 8.9139 29.3104 8.80382 29.088C8.63998 28.7545 8.46718 28.3595 8.36222 28.077C8.28414 27.8678 8.2035 27.6336 8.12542 27.4008C8.01278 27.0922 7.91294 26.777 7.82718 26.4579C7.7107 25.9949 7.55838 25.3841 7.49566 24.9172C7.43678 24.4829 7.3715 23.9873 7.34078 23.6054C7.32798 23.4536 7.2883 22.9253 7.29854 22.512L7.29982 22.4466C7.30878 22.066 7.3203 21.5925 7.34718 21.2276C7.3715 20.9085 7.4227 20.469 7.47774 20.1094C7.68638 18.7649 8.02302 17.7931 8.0371 17.7526C8.13694 17.4688 8.32126 16.9391 8.47614 16.565C8.58878 16.293 8.77182 15.898 8.96638 15.5095C9.25438 14.9328 9.69726 14.2043 10.0672 13.6942C10.5408 13.0429 11.1462 12.317 11.6109 11.8475C12.3149 11.136 12.5901 10.9228 13.5065 10.2165C13.8252 9.97064 14.2758 9.69337 14.5856 9.50765C14.8684 9.33762 15.2678 9.12051 15.6019 8.95572C15.9244 8.79616 16.384 8.59474 16.7718 8.44303C16.992 8.35671 17.2582 8.26908 17.5168 8.18537C17.6294 8.14875 17.7382 8.11344 17.8355 8.07944C18.1977 7.95649 18.6764 7.85186 19.0963 7.76424C19.3241 7.71715 19.598 7.6753 19.863 7.63606C19.9756 7.61906 20.0832 7.60337 20.1817 7.58767C20.5849 7.52228 21.1174 7.49743 21.5372 7.48435C21.8969 7.47127 22.318 7.47519 22.6086 7.4922C23.0284 7.51704 23.6134 7.57328 24.0959 7.63606C24.7807 7.725 25.3926 7.88979 26.039 8.06505C26.5215 8.19584 27.1615 8.42603 27.6313 8.6366C28.0665 8.83278 28.3916 8.9858 28.6233 9.10743C28.9164 9.26046 29.3081 9.48411 29.5974 9.66459C29.8982 9.85162 30.2425 10.0818 30.4742 10.2518C30.8198 10.5069 30.9362 10.5919 31.4546 11.03C31.511 11.0784 31.8066 11.3335 32.1945 11.7167C32.4902 12.0096 32.7372 12.2856 32.8562 12.4177C32.9996 12.5786 33.3196 12.9579 33.5206 13.2247C33.8457 13.6536 33.9033 13.7426 34.2271 14.2291C34.4703 14.5966 34.9004 15.35 35.1334 15.8509C35.3125 16.2354 35.6121 16.8802 35.8566 17.644C36.1228 18.4732 36.3058 19.203 36.4018 19.8125C36.4991 20.4298 36.6092 21.1269 36.6297 22.1274C36.6527 23.2248 36.5567 24.0906 36.4978 24.5091C36.4377 24.9368 36.3263 25.7346 35.9948 26.8555C35.7951 27.5316 35.4342 28.4001 35.1666 29.0095C35.0438 29.2894 34.8466 29.6622 34.5638 30.1487C34.4409 30.3619 34.2783 30.6078 34.1222 30.8445C34.0543 30.9491 33.9878 31.0485 33.9289 31.1414C33.7087 31.4854 33.3734 31.9052 33.1327 32.1838L33.0892 32.2348C32.7999 32.5696 32.4415 32.9855 32.1279 33.2733C32.0575 33.3386 31.9807 33.4093 31.9014 33.4838C31.6863 33.6839 31.4431 33.9102 31.2383 34.0802C30.9554 34.3156 30.5382 34.6531 30.1977 34.8741L29.9634 35.0271C29.7202 35.1867 29.4438 35.3672 29.2159 35.4993C28.8639 35.702 28.4031 35.9426 28.0703 36.0983C26.894 36.6476 25.879 36.9144 25.7676 36.9432C25.0751 37.1197 24.1689 37.278 23.6019 37.3591C23.2934 37.4036 22.9068 37.4193 22.5651 37.4336C22.4524 37.4389 22.3449 37.4428 22.2451 37.448C22.1465 37.4559 22.0351 37.4585 21.9225 37.4585ZM10.3488 31.1035C10.4294 31.2159 10.5344 31.3611 10.6521 31.5141C11.4457 32.5487 12.1856 33.2353 12.6733 33.663C13.6409 34.5105 14.5881 35.0637 14.944 35.2717C15.7132 35.7216 16.5952 36.0983 17.0022 36.2422C17.4758 36.4096 18.1145 36.6071 18.592 36.7339C18.9683 36.8333 19.4086 36.9236 19.7158 36.9628C20.366 37.0465 20.8511 37.0988 21.1967 37.1224C21.486 37.1433 21.9097 37.159 22.2323 37.142C22.3334 37.1367 22.4422 37.1315 22.5548 37.1276C22.8889 37.1132 23.2691 37.0975 23.5622 37.0557C24.1215 36.9759 25.0163 36.8202 25.6972 36.6463C25.806 36.6188 26.7967 36.3586 27.9487 35.8197C28.2751 35.6667 28.727 35.4313 29.0713 35.2325C29.2927 35.1056 29.5641 34.9264 29.8047 34.7695L30.0402 34.6151C30.3679 34.4033 30.775 34.0724 31.0527 33.8435C31.2511 33.68 31.4905 33.4564 31.703 33.2589C31.7836 33.1843 31.8604 33.1124 31.9321 33.047C32.2329 32.771 32.5862 32.363 32.869 32.0334L32.9126 31.9824C33.1455 31.7116 33.4706 31.3049 33.6818 30.974C33.7407 30.8811 33.8086 30.7791 33.8777 30.6745C34.0313 30.4404 34.19 30.1984 34.309 29.9931C34.5855 29.517 34.7775 29.1547 34.8953 28.8853C35.159 28.2837 35.5135 27.4283 35.7093 26.7678C36.0345 25.6692 36.1446 24.8871 36.2034 24.4673C36.261 24.0579 36.3545 23.2104 36.3314 22.1353C36.3109 21.157 36.2034 20.4704 36.1074 19.8648C36.014 19.2697 35.8335 18.5569 35.5724 17.7421C35.333 16.9979 35.0386 16.3636 34.8633 15.9856C34.6354 15.4965 34.2169 14.7627 33.9826 14.4096C33.6601 13.9244 33.6038 13.8381 33.2838 13.4156C33.0866 13.1553 32.7756 12.7852 32.6361 12.6283C32.5196 12.4975 32.2764 12.2267 31.9871 11.939C31.607 11.5623 31.319 11.3151 31.2652 11.2694C30.7545 10.8378 30.6393 10.7528 30.3001 10.5029C30.0748 10.3368 29.7382 10.1119 29.4438 9.92879C29.1609 9.75222 28.7769 9.53381 28.4889 9.3834C28.2623 9.26438 27.9436 9.11397 27.5135 8.92041C27.0566 8.71507 26.4345 8.49142 25.9647 8.36456C25.3286 8.19191 24.727 8.02974 24.0614 7.94342C23.5839 7.88195 23.0092 7.82571 22.5945 7.80086C22.3116 7.78385 21.902 7.78124 21.5513 7.79301C21.1404 7.8074 20.6195 7.83094 20.2329 7.89372C20.1344 7.90941 20.0243 7.92641 19.9116 7.94342C19.6505 7.98265 19.3804 8.0232 19.1616 8.06897C18.8646 8.13175 18.3116 8.24684 17.9353 8.37502C17.8355 8.40902 17.7267 8.44434 17.6128 8.48226C17.358 8.56597 17.0944 8.65098 16.8832 8.73469C16.503 8.88379 16.0524 9.08128 15.7363 9.23692C15.4137 9.39648 15.0131 9.61228 14.7417 9.77576C14.4371 9.95887 13.998 10.2296 13.6921 10.465C12.7885 11.1621 12.5158 11.3727 11.8272 12.0685C11.3728 12.5289 10.7776 13.239 10.3129 13.8799C9.95198 14.3769 9.52062 15.0897 9.23902 15.6521C9.04702 16.0353 8.86782 16.4224 8.75774 16.6879C8.6067 17.0542 8.42366 17.5773 8.3251 17.8585C8.31102 17.8977 7.98462 18.8433 7.77982 20.1591C7.72606 20.5057 7.67486 20.9451 7.65182 21.2525C7.62494 21.6095 7.6147 22.0791 7.60574 22.4557L7.60446 22.5211C7.59806 22.7892 7.61342 23.1855 7.64542 23.5805C7.6787 23.9846 7.75422 24.5431 7.79902 24.8753C7.85918 25.3252 8.00894 25.9255 8.11902 26.365C8.1203 26.3715 8.12158 26.3768 8.12414 26.3833C8.1971 26.6253 8.29822 26.9483 8.40574 27.274C9.12382 29.2502 10.3923 30.9871 12.1139 32.3486C12.1369 32.3669 12.1587 32.3839 12.1817 32.4022L11.9987 32.6481C11.3933 32.1746 10.8429 31.6593 10.3488 31.1035Z" fill="#0C1E34"/>
</svg>
