<svg width="95" height="13" viewBox="0 0 95 13" fill="none" xmlns="http://www.w3.org/2000/svg">
<path fill-rule="evenodd" clip-rule="evenodd" d="M14.8941 12.7702V6.08836C14.8941 4.19293 13.8473 3.29308 12.0893 3.29308C10.6277 3.29308 9.36359 4.13549 8.81053 4.97791C8.45499 3.92489 7.56615 3.29308 6.16375 3.29308C4.7021 3.29308 3.43797 4.17378 3.04293 4.72901V3.52283H0.534424V12.7702H3.04293V6.54786C3.41822 6.03093 4.14904 5.45655 5.01814 5.45655C6.04524 5.45655 6.44028 6.06922 6.44028 6.93078V12.7702H8.96854V6.52872C9.32408 6.03093 10.0549 5.45655 10.9437 5.45655C11.9708 5.45655 12.3659 6.06922 12.3659 6.93078V12.7702H14.8941ZM21.7876 13C18.647 13 16.7508 10.7791 16.7508 8.13697C16.7508 5.51399 18.647 3.29308 21.7876 3.29308C24.9479 3.29308 26.8441 5.51399 26.8441 8.13697C26.8441 10.7791 24.9479 13 21.7876 13ZM21.7876 10.8365C23.348 10.8365 24.2369 9.59205 24.2369 8.13697C24.2369 6.70103 23.348 5.45655 21.7876 5.45655C20.2272 5.45655 19.3581 6.70103 19.3581 8.13697C19.3581 9.59205 20.2272 10.8365 21.7876 10.8365ZM37.6485 12.7702V6.24153C37.6485 4.44183 36.6411 3.29308 34.5474 3.29308C32.987 3.29308 31.8216 4.02062 31.2093 4.72901V3.52283H28.7008V12.7702H31.2093V6.54786C31.6241 5.99264 32.3945 5.45655 33.3821 5.45655C34.4487 5.45655 35.14 5.89691 35.14 7.17968V12.7702H37.6485ZM44.5617 13C41.4211 13 39.5249 10.7791 39.5249 8.13697C39.5249 5.51399 41.4211 3.29308 44.5617 3.29308C47.722 3.29308 49.6182 5.51399 49.6182 8.13697C49.6182 10.7791 47.722 13 44.5617 13ZM44.5617 10.8365C46.1221 10.8365 47.011 9.59205 47.011 8.13697C47.011 6.70103 46.1221 5.45655 44.5617 5.45655C43.0013 5.45655 42.1322 6.70103 42.1322 8.13697C42.1322 9.59205 43.0013 10.8365 44.5617 10.8365ZM53.9834 9.80265C54.3982 10.3962 55.3266 10.8365 56.1364 10.8365C57.5981 10.8365 58.5659 9.76436 58.5659 8.15611C58.5659 6.54786 57.5981 5.45655 56.1364 5.45655C55.3266 5.45655 54.3982 5.91605 53.9834 6.52872V9.80265ZM53.9834 12.7702H51.4749V0H53.9834V4.70987C54.734 3.77172 55.8006 3.29308 56.9265 3.29308C59.356 3.29308 61.1534 5.13107 61.1534 8.15611C61.1534 11.2386 59.3362 13 56.9265 13C55.7809 13 54.734 12.5022 53.9834 11.5832V12.7702ZM71.2862 12.7702H68.7777V11.813C68.1259 12.5596 67 13 65.7557 13C64.2348 13 62.4373 12.0044 62.4373 9.93667C62.4373 7.7732 64.2348 6.94993 65.7557 6.94993C67.0198 6.94993 68.1457 7.35199 68.7777 8.07953V6.83505C68.7777 5.89691 67.9481 5.28424 66.684 5.28424C65.6569 5.28424 64.7088 5.64801 63.899 6.37555L62.9509 4.74816C64.1162 3.75258 65.6174 3.29308 67.1186 3.29308C69.2913 3.29308 71.2862 4.13549 71.2862 6.79676V12.7702ZM66.763 11.3535C67.5729 11.3535 68.3629 11.0854 68.7777 10.5493V9.40059C68.3629 8.86451 67.5729 8.59647 66.763 8.59647C65.7754 8.59647 64.9656 9.09426 64.9656 9.99411C64.9656 10.8557 65.7754 11.3535 66.763 11.3535ZM82.7227 12.7702V6.24153C82.7227 4.44183 81.7153 3.29308 79.6216 3.29308C78.0612 3.29308 76.8958 4.02062 76.2835 4.72901V3.52283H73.775V12.7702H76.2835V6.54786C76.6983 5.99264 77.4686 5.45655 78.4562 5.45655C79.5228 5.45655 80.2142 5.89691 80.2142 7.17968V12.7702H82.7227ZM94.5344 12.7702L90.6432 7.71576L94.4159 3.52283H91.3346L87.7199 7.63918V0H85.2114V12.7702H87.7199V10.3962L88.8656 9.20913L91.3938 12.7702H94.5344Z" fill="white"/>
</svg>
