<svg width="107" height="27" viewBox="0 0 107 27" fill="none" xmlns="http://www.w3.org/2000/svg">
<path fill-rule="evenodd" clip-rule="evenodd" d="M11.0204 6.88379H18.0744C21.8619 6.88379 23.2876 8.80046 23.0672 11.6163C22.7032 16.265 19.8918 18.837 16.1626 18.837H14.2798C13.7681 18.837 13.4241 19.1754 13.2856 20.0928L12.4863 25.426C12.4335 25.7717 12.2514 25.9721 11.9783 25.9993H7.54623C7.12929 25.9993 6.98178 25.6807 7.091 24.9909L9.79323 7.89406C9.89876 7.20971 10.2739 6.88379 11.0204 6.88379Z" fill="#A8B6D1"/>
<path fill-rule="evenodd" clip-rule="evenodd" d="M41.6454 6.56836C44.0253 6.56836 46.2213 7.85875 45.9208 11.075C45.5566 14.8974 43.5081 17.0125 40.276 17.0215H37.4519C37.0459 17.0215 36.8492 17.3529 36.7436 18.0318L36.1974 21.5028C36.1153 22.027 35.8459 22.2854 35.4489 22.2854H32.8215C32.4026 22.2854 32.257 22.0179 32.3498 21.4191L34.5185 7.50756C34.626 6.82307 34.8827 6.56836 35.3506 6.56836H41.6399H41.6454ZM37.3663 14.0164H39.5059C40.8442 13.9654 41.7327 13.0391 41.822 11.3681C41.8766 10.3361 41.1792 9.59709 40.0703 9.60256L38.0564 9.61157L37.3663 14.0164ZM53.0641 21.2206C53.3044 21.0023 53.5484 20.8894 53.5139 21.1587L53.4283 21.8032C53.3845 22.1399 53.5174 22.3182 53.8306 22.3182H56.1649C56.5582 22.3182 56.7495 22.1599 56.846 21.552L58.2845 12.5276C58.3572 12.0743 58.2462 11.8522 57.902 11.8522H55.3346C55.1034 11.8522 54.9905 11.9815 54.9304 12.3346L54.8358 12.8897C54.7866 13.1791 54.6537 13.2301 54.5298 12.9389C54.0947 11.9087 52.9838 11.4464 51.4343 11.4827C47.8345 11.5574 45.4073 14.2894 45.1469 17.7915C44.9467 20.5 46.8877 22.6278 49.4477 22.6278C51.3051 22.6278 52.1353 22.0817 53.0713 21.2261L53.0641 21.2206ZM51.1084 19.8319C49.5589 19.8319 48.4791 18.596 48.703 17.0816C48.927 15.5673 50.3764 14.3314 51.926 14.3314C53.4756 14.3314 54.5553 15.5673 54.3313 17.0816C54.1074 18.596 52.6599 19.8319 51.1084 19.8319ZM62.853 11.8231H60.4859C59.9978 11.8231 59.7995 12.1872 59.9542 12.635L62.8931 21.237L60.0107 25.3306C59.7684 25.6729 59.956 25.984 60.2965 25.984H62.9568C63.1118 26.0021 63.2688 25.975 63.4089 25.9062C63.549 25.8375 63.6664 25.7299 63.7471 25.5964L72.7859 12.6368C73.0645 12.2382 72.9334 11.8194 72.4762 11.8194H69.958C69.5265 11.8194 69.3535 11.9905 69.1058 12.3491L65.3366 17.8097L63.6523 12.3364C63.554 12.0052 63.3082 11.8231 62.8548 11.8231H62.853Z" fill="white"/>
<path fill-rule="evenodd" clip-rule="evenodd" d="M82.1893 6.56815C84.5694 6.56815 86.7657 7.85868 86.4642 11.0749C86.1007 14.8973 84.0521 17.0123 80.8199 17.0214H77.9975C77.5915 17.0214 77.3948 17.3527 77.2893 18.0315L76.743 21.5026C76.6611 22.0268 76.3915 22.2854 75.9946 22.2854H73.3671C72.9483 22.2854 72.8027 22.0178 72.8955 21.419L75.0679 7.50366C75.1753 6.81931 75.432 6.56445 75.9 6.56445H82.1893V6.56815ZM77.9102 14.0163H80.0497C81.3881 13.9654 82.2766 13.0389 82.3659 11.3679C82.4204 10.3359 81.7231 9.59688 80.6142 9.60235L78.6003 9.61151L77.9102 14.0163ZM93.6074 21.2206C93.8483 21.0021 94.0922 20.8893 94.0582 21.1587L93.9724 21.803C93.9281 22.1397 94.0611 22.3182 94.3745 22.3182H96.7082C97.1028 22.3182 97.2935 22.1598 97.3896 21.5518L98.8277 12.5274C98.9016 12.0742 98.7907 11.8522 98.4463 11.8522H95.882C95.6515 11.8522 95.5377 11.9813 95.4785 12.3344L95.3839 12.8896C95.3337 13.1791 95.2007 13.23 95.078 12.9388C94.642 11.9085 93.532 11.4462 91.9816 11.4827C88.3827 11.5573 85.9543 14.2894 85.6942 17.7913C85.4947 20.4997 87.4353 22.6275 89.9952 22.6275C91.853 22.6275 92.6822 22.0815 93.6192 21.226L93.6074 21.2206ZM91.6535 19.8318C90.1045 19.8318 89.0241 18.5959 89.2488 17.0814C89.472 15.567 90.9219 14.3312 92.4723 14.3312C94.0212 14.3312 95.1017 15.567 94.877 17.0814C94.6523 18.5959 93.2039 19.8318 91.6535 19.8318ZM102.421 22.3326H99.7263C99.679 22.3347 99.6317 22.3264 99.5888 22.3084C99.546 22.2904 99.5076 22.2629 99.475 22.2282C99.444 22.1935 99.4203 22.1521 99.407 22.1072C99.3937 22.0624 99.3893 22.015 99.3967 21.9686L101.763 6.97769C101.787 6.87545 101.843 6.7837 101.924 6.71766C102.005 6.65147 102.107 6.61483 102.211 6.61365H104.907C104.954 6.61158 105 6.61985 105.043 6.63788C105.087 6.6559 105.125 6.68338 105.156 6.7181C105.189 6.75297 105.211 6.79419 105.226 6.8391C105.239 6.88387 105.242 6.9313 105.236 6.97769L102.869 21.9686C102.846 22.0716 102.79 22.1641 102.709 22.231C102.628 22.2978 102.526 22.3349 102.421 22.3363V22.3326Z" fill="white"/>
<path fill-rule="evenodd" clip-rule="evenodd" d="M6.60846 1H13.6699C15.6582 1 18.018 1.06368 19.5949 2.45616C20.6493 3.3862 21.2028 4.866 21.0752 6.46059C20.6419 11.8501 17.4172 14.8697 13.0908 14.8697H9.60923C9.01567 14.8697 8.62415 15.2628 8.45669 16.3258L7.48432 22.5145C7.42062 22.9149 7.24754 23.1516 6.93805 23.1807H2.58077C2.09821 23.1807 1.92706 22.8167 2.05269 22.012L5.18456 2.17589C5.31019 1.37867 5.749 1 6.60846 1Z" fill="white"/>
<path fill-rule="evenodd" clip-rule="evenodd" d="M8.55872 15.6989L9.79151 7.89583C9.89896 7.21148 10.2739 6.88379 11.0206 6.88379H18.0746C19.2418 6.88379 20.1868 7.06581 20.9261 7.40252C20.2177 12.2006 17.1132 14.8653 13.049 14.8653H9.57292C9.10676 14.8671 8.76445 15.1001 8.55872 15.6989Z" fill="#DFE4EB"/>
</svg>
