<svg width="135" height="24" viewBox="0 0 135 24" fill="none" xmlns="http://www.w3.org/2000/svg">
<path d="M27.0703 19.9869H23.8475V8.59277H35.4494V19.9869H32.2273V10.8063H27.0703V19.9869Z" fill="white"/>
<path d="M37.0123 11.7198V23.0009H39.9822V19.143C40.9775 20.2178 42.5989 20.299 42.9897 20.299C45.8221 20.299 47.5603 18.4915 47.5603 15.8709C47.5603 13.1365 45.8411 11.4111 43.0485 11.4111C42.3446 11.4111 40.9775 11.5251 39.8445 12.7136H39.7861L39.8054 11.7198H37.0123ZM39.8445 15.8381C39.8445 13.5273 41.271 13.0717 42.1696 13.0717C43.0485 13.0717 44.4743 13.5273 44.4743 15.8381C44.4743 17.2712 43.8691 18.639 42.1696 18.639C40.4312 18.639 39.8445 17.2712 39.8445 15.8381Z" fill="white"/>
<path d="M54.9235 18.996C53.8302 20.0207 52.7768 20.298 51.6037 20.298C48.4004 20.298 48.2826 17.8886 48.2826 16.896V11.7188H51.2518V16.5047C51.2518 18.1493 51.8197 18.6379 52.9126 18.6379C54.7868 18.6379 54.9235 16.961 54.9235 16.3587V11.7188H57.8939V19.9882H54.9235V18.996Z" fill="white"/>
<path d="M62.1521 16.5047H63.9689C65.3742 16.5047 65.6674 16.9283 65.6674 17.4819C65.6674 17.8397 65.4713 18.3283 64.0057 18.3283H62.1521V16.5047ZM59.1829 11.7188V19.9882H65.0819C67.2303 19.9882 68.7145 19.5651 68.7145 17.8723C68.7145 16.57 67.9908 16.0004 66.3509 15.7077V15.6585C67.4255 15.512 68.3636 14.8444 68.3636 13.7216C68.3636 11.7187 66.0193 11.7188 65.1011 11.7188H59.1829ZM62.1521 13.38H63.7526C64.5928 13.38 65.3148 13.5101 65.3148 14.1932C65.3148 14.9427 64.1823 14.9588 63.6942 14.9588H62.1521V13.38Z" fill="white"/>
<path d="M72.4642 14.3898C72.4642 13.169 73.7532 13.0717 74.281 13.0717C74.6134 13.0717 75.843 13.088 75.8831 14.1621C75.8831 14.2436 75.8831 14.3086 75.8831 14.3898C75.8244 15.2037 75.0431 15.0411 72.8562 15.3177C71.058 15.5617 69.1633 16.0171 69.1633 17.9061C69.1633 18.5898 69.4565 20.299 72.6209 20.299C73.8327 20.299 75.1611 19.9892 75.941 19.1758H76.0013L76.2542 19.9892H79.3791V19.8432C78.8129 19.729 78.7737 19.1758 78.7929 18.2802L78.8516 14.5033C78.8715 13.5437 78.7737 11.4111 74.3009 11.4111C73.2263 11.4111 69.769 11.5085 69.6322 14.3898H72.4642ZM75.9023 16.571C75.9023 18.2316 74.4567 18.639 73.7349 18.639C73.1869 18.639 72.2104 18.4592 72.2104 17.6784C72.2104 16.75 73.3234 16.571 73.9493 16.4896C75.1017 16.3267 75.0037 16.3759 75.9023 16.0499V16.571Z" fill="white"/>
<path d="M79.184 13.38V11.7188H88.7156V13.38H85.4342V19.9882H82.4657V13.38H79.184Z" fill="white"/>
<path d="M92.5058 10.8063H99.9081V8.59277H89.2818V19.9869H95.8057C98.9708 19.9869 101.001 18.8807 101.001 16.5523C101.001 12.9067 96.9389 12.8248 95.8057 12.8248H92.5058V10.8063ZM92.5058 15.0388H95.1808C95.964 15.0388 97.5253 15.1205 97.5253 16.4873C97.5253 17.5619 96.3919 17.7732 95.1231 17.7732H92.5058V15.0388Z" fill="white"/>
<path d="M104.87 14.3898C104.87 13.169 106.16 13.0717 106.686 13.0717C107.018 13.0717 108.25 13.088 108.289 14.1621C108.289 14.2436 108.289 14.3086 108.289 14.3898C108.23 15.2037 107.449 15.0411 105.259 15.3177C103.464 15.5617 101.569 16.0171 101.569 17.9061C101.569 18.5898 101.861 20.299 105.026 20.299C106.237 20.299 107.565 19.9892 108.347 19.1758H108.405L108.659 19.9892H111.784V19.8432C111.22 19.729 111.179 19.1758 111.199 18.2802L111.257 14.5033C111.277 13.5437 111.179 11.4111 106.705 11.4111C105.632 11.4111 102.174 11.5085 102.037 14.3898H104.87ZM108.307 16.571C108.307 18.2316 106.862 18.639 106.14 18.639C105.593 18.639 104.616 18.4592 104.616 17.6784C104.616 16.75 105.729 16.571 106.353 16.4896C107.507 16.3267 107.409 16.3759 108.307 16.0499V16.571Z" fill="white"/>
<path d="M115.495 19.9882H112.526V11.7188H115.495V14.8283H119.07V11.7188H122.04V19.9882H119.07V16.4886H115.495V19.9882Z" fill="white"/>
<path d="M129.54 11.7188H132.84L128.758 15.5928L133.036 19.9882H129.558L126.355 16.3748H126.298V19.9882H123.329V11.7188H126.298V15.04H126.355L129.54 11.7188Z" fill="white"/>
<path d="M2.28516 20.0178H9.72193V12.5811H2.28516V20.0178Z" fill="#373435"/>
<path d="M17.3823 4.93147C17.3823 7.46025 17.3823 13.5592 17.3823 16.0879C16.676 16.0879 16.5516 16.0879 15.8652 16.0879C15.2102 10.5705 11.7433 7.10459 6.22492 6.44955C6.22492 5.76316 6.22492 5.63923 6.22492 4.93147C8.75393 4.93147 14.8533 4.93147 17.3823 4.93147ZM2.29297 1V10.2564H4.25953C9.43462 10.2564 12.0586 12.8799 12.0586 18.0533V20.0199H21.3143V1H2.29297Z" fill="white"/>
</svg>
