<svg width="18" height="14" viewBox="0 0 18 14" fill="none" xmlns="http://www.w3.org/2000/svg">
<path d="M16.6096 1.87433L16.6096 1.87432C16.0571 1.27417 15.443 1.2002 15.0962 1.15995L16.6096 1.87433ZM16.6096 1.87433L16.6126 1.87751M16.6096 1.87433L16.6126 1.87751M16.6126 1.87751C16.8223 2.1013 16.9789 2.47113 17.0838 2.85347C17.1848 3.22182 17.2205 3.53572 17.2261 3.59073L17.2264 3.59342C17.234 3.681 17.3487 5.02208 17.3489 6.36384C17.3489 6.36385 17.3489 6.36387 17.3489 6.36388V7.65577C17.3489 8.9851 17.2361 10.3138 17.2266 10.4234L17.2257 10.4322C17.2182 10.493 17.1771 10.7974 17.0756 11.1548C16.9687 11.5314 16.8132 11.8986 16.6112 12.1226L16.6092 12.1249C16.0655 12.7351 15.4686 12.8012 15.1317 12.8377C15.1002 12.841 15.0646 12.8448 15.0304 12.8493L15.0154 12.8509C13.9111 12.9326 12.5215 12.9794 11.3976 13.0057C10.8354 13.0188 10.3417 13.0268 9.98653 13.0316C9.80897 13.0339 9.66611 13.0355 9.56668 13.0364L9.45126 13.0374L9.42011 13.0377L9.41162 13.0377L9.40881 13.0377V13.0376L9.40425 13.0377C9.17876 13.0344 5.21606 12.9729 3.94584 12.8514L3.92551 12.8485C3.872 12.8395 3.80567 12.8317 3.75046 12.8253L3.73722 12.8238C3.73721 12.8238 3.73721 12.8238 3.7372 12.8238C3.30807 12.7736 2.67207 12.6908 2.16677 12.1267L2.16684 12.1266L2.16006 12.1193C1.9501 11.8941 1.79422 11.5279 1.69005 11.1524C1.58952 10.7901 1.55404 10.4825 1.54842 10.429L1.54801 10.425C1.53944 10.3258 1.42578 8.99104 1.42578 7.65577V6.36384C1.42578 5.03433 1.53846 3.70532 1.54788 3.59621L1.54883 3.58757C1.55651 3.52585 1.59764 3.22162 1.69895 2.86474C1.80587 2.48812 1.96134 2.12092 2.16328 1.89702L2.16329 1.89702L2.1653 1.89477C2.72099 1.27112 3.32604 1.19907 3.66371 1.15931L3.6643 1.15924M16.6126 1.87751L3.6643 1.15924M3.6643 1.15924C3.66849 1.15874 3.67291 1.15822 3.67749 1.15768C3.69795 1.15526 3.72176 1.15245 3.74428 1.14946M3.6643 1.15924L3.74428 1.14946M14.995 1.14786L15.0097 1.14944C15.0384 1.15324 15.0685 1.15674 15.096 1.15993L14.995 1.14786ZM14.995 1.14786C13.8907 1.06622 12.5011 1.01944 11.3771 0.993122C10.8149 0.979956 10.3212 0.971953 9.96602 0.967235C9.78846 0.964876 9.64559 0.963338 9.54616 0.962388L9.43073 0.961372L9.39958 0.961139L9.39109 0.961082L9.38828 0.961065L14.995 1.14786ZM3.74428 1.14946L3.759 1.14789C4.87347 1.06622 6.26835 1.01944 7.39483 0.993123C7.95834 0.979957 8.45268 0.971953 8.80817 0.967235C8.98589 0.964876 9.12884 0.963338 9.22831 0.962388L9.34377 0.961372L9.37493 0.961139L9.38342 0.961082L9.38623 0.961065L3.74428 1.14946Z" stroke="white"/>
<path d="M7.918 9.1632L7.91821 9.16309L11.856 7.17006C11.9327 7.13126 11.9625 7.06789 11.9627 7.01681C11.9628 6.96608 11.9337 6.90293 11.8575 6.86368L7.918 9.1632ZM7.918 9.1632C7.88077 9.18207 7.8408 9.19126 7.80118 9.19126C7.75807 9.19126 7.7149 9.18036 7.67541 9.15815C7.60337 9.11765 7.57812 9.06077 7.57812 9.00965V4.98838C7.57812 4.93689 7.60337 4.87998 7.67619 4.83932L7.918 9.1632ZM7.9197 4.83564L11.8575 6.86366L7.67627 4.83928C7.75165 4.79727 7.84187 4.79555 7.9197 4.83564C7.9197 4.83564 7.9197 4.83564 7.9197 4.83564Z" stroke="white"/>
</svg>
